<svg xmlns="http://www.w3.org/2000/svg" xmlns:xlink="http://www.w3.org/1999/xlink" width="500" zoomAndPan="magnify" viewBox="0 0 375 374.999991" height="500" preserveAspectRatio="xMidYMid meet" version="1.0"><defs><clipPath id="2d1e9aacd9"><path d="M 78.582031 78.582031 L 296.082031 78.582031 L 296.082031 296.082031 L 78.582031 296.082031 Z M 78.582031 78.582031 " clip-rule="nonzero"/></clipPath><clipPath id="19b8cd3a29"><path d="M 78.582031 78.582031 L 296.082031 78.582031 L 296.082031 296.082031 L 78.582031 296.082031 Z M 78.582031 78.582031 " clip-rule="nonzero"/></clipPath></defs><path fill="#ffffff" d="M 286.347656 285.199219 L 90.835938 285.199219 L 90.835938 89.6875 L 286.347656 89.6875 L 286.347656 285.199219 " fill-opacity="1" fill-rule="nonzero"/><g clip-path="url(#2d1e9aacd9)"><path fill="#63c557" d="M 107.554688 96.21875 C 101.304688 96.21875 96.21875 101.304688 96.21875 107.554688 L 96.21875 267.109375 C 96.21875 273.359375 101.304688 278.445312 107.554688 278.445312 L 267.109375 278.445312 C 273.359375 278.445312 278.445312 273.359375 278.445312 267.109375 L 278.445312 107.554688 C 278.445312 101.304688 273.359375 96.21875 267.109375 96.21875 Z M 267.109375 296.082031 L 107.554688 296.082031 C 91.578125 296.082031 78.582031 283.082031 78.582031 267.109375 L 78.582031 107.554688 C 78.582031 91.578125 91.578125 78.582031 107.554688 78.582031 L 267.109375 78.582031 C 283.082031 78.582031 296.082031 91.578125 296.082031 107.554688 L 296.082031 267.109375 C 296.082031 283.082031 283.082031 296.082031 267.109375 296.082031 " fill-opacity="1" fill-rule="nonzero"/></g><path fill="#63c557" d="M 262.390625 138.230469 L 242.5 123.5625 L 178.136719 210.859375 L 134.226562 156.226562 L 114.964844 171.707031 L 179.183594 251.09375 C 197.542969 225.921875 216.082031 200.886719 234.597656 175.835938 C 243.859375 163.300781 253.125 150.765625 262.390625 138.230469 " fill-opacity="1" fill-rule="nonzero"/><path fill="#ffffff" d="M 286.347656 285.199219 L 90.835938 285.199219 L 90.835938 89.6875 L 286.347656 89.6875 L 286.347656 285.199219 " fill-opacity="1" fill-rule="nonzero"/><g clip-path="url(#19b8cd3a29)"><path fill="#63c557" d="M 107.554688 96.21875 C 101.304688 96.21875 96.21875 101.304688 96.21875 107.554688 L 96.21875 267.109375 C 96.21875 273.359375 101.304688 278.445312 107.554688 278.445312 L 267.109375 278.445312 C 273.359375 278.445312 278.445312 273.359375 278.445312 267.109375 L 278.445312 107.554688 C 278.445312 101.304688 273.359375 96.21875 267.109375 96.21875 Z M 267.109375 296.082031 L 107.554688 296.082031 C 91.578125 296.082031 78.582031 283.082031 78.582031 267.109375 L 78.582031 107.554688 C 78.582031 91.578125 91.578125 78.582031 107.554688 78.582031 L 267.109375 78.582031 C 283.082031 78.582031 296.082031 91.578125 296.082031 107.554688 L 296.082031 267.109375 C 296.082031 283.082031 283.082031 296.082031 267.109375 296.082031 " fill-opacity="1" fill-rule="nonzero"/></g><path fill="#63c557" d="M 262.390625 138.230469 L 242.5 123.5625 L 178.136719 210.859375 L 134.226562 156.226562 L 114.964844 171.707031 L 179.183594 251.09375 C 197.542969 225.921875 216.082031 200.886719 234.597656 175.835938 C 243.859375 163.300781 253.125 150.765625 262.390625 138.230469 " fill-opacity="1" fill-rule="nonzero"/></svg>