<svg xmlns="http://www.w3.org/2000/svg" xmlns:xlink="http://www.w3.org/1999/xlink" width="500" zoomAndPan="magnify" viewBox="0 0 375 374.999991" height="500" preserveAspectRatio="xMidYMid meet" version="1.0"><defs><clipPath id="cac14591ac"><path d="M 78.582031 78.582031 L 296.082031 78.582031 L 296.082031 296.082031 L 78.582031 296.082031 Z M 78.582031 78.582031 " clip-rule="nonzero"/></clipPath><clipPath id="001720a149"><path d="M 78.582031 78.582031 L 296.082031 78.582031 L 296.082031 296.082031 L 78.582031 296.082031 Z M 78.582031 78.582031 " clip-rule="nonzero"/></clipPath></defs><g clip-path="url(#cac14591ac)"><path fill="#ed212f" d="M 109.488281 97.480469 C 102.867188 97.480469 97.480469 102.867188 97.480469 109.488281 L 97.480469 265.199219 C 97.480469 271.820312 102.867188 277.207031 109.488281 277.207031 L 265.199219 277.207031 C 271.820312 277.207031 277.207031 271.820312 277.207031 265.199219 L 277.207031 109.488281 C 277.207031 102.867188 271.820312 97.480469 265.199219 97.480469 Z M 265.199219 296.097656 L 109.488281 296.097656 C 92.449219 296.097656 78.589844 282.234375 78.589844 265.199219 L 78.589844 109.488281 C 78.589844 92.449219 92.449219 78.589844 109.488281 78.589844 L 265.199219 78.589844 C 282.234375 78.589844 296.097656 92.449219 296.097656 109.488281 L 296.097656 265.199219 C 296.097656 282.234375 282.234375 296.097656 265.199219 296.097656 " fill-opacity="1" fill-rule="nonzero"/></g><path fill="#ed212f" d="M 148.980469 241.734375 L 132.953125 225.707031 L 225.707031 132.953125 L 241.734375 148.980469 L 148.980469 241.734375 " fill-opacity="1" fill-rule="nonzero"/><path fill="#ed212f" d="M 225.707031 241.734375 L 132.953125 148.980469 L 148.980469 132.953125 L 241.734375 225.707031 L 225.707031 241.734375 " fill-opacity="1" fill-rule="nonzero"/><g clip-path="url(#001720a149)"><path fill="#ed212f" d="M 109.488281 97.480469 C 102.867188 97.480469 97.480469 102.867188 97.480469 109.488281 L 97.480469 265.199219 C 97.480469 271.820312 102.867188 277.207031 109.488281 277.207031 L 265.199219 277.207031 C 271.820312 277.207031 277.207031 271.820312 277.207031 265.199219 L 277.207031 109.488281 C 277.207031 102.867188 271.820312 97.480469 265.199219 97.480469 Z M 265.199219 296.097656 L 109.488281 296.097656 C 92.449219 296.097656 78.589844 282.234375 78.589844 265.199219 L 78.589844 109.488281 C 78.589844 92.449219 92.449219 78.589844 109.488281 78.589844 L 265.199219 78.589844 C 282.234375 78.589844 296.097656 92.449219 296.097656 109.488281 L 296.097656 265.199219 C 296.097656 282.234375 282.234375 296.097656 265.199219 296.097656 " fill-opacity="1" fill-rule="nonzero"/></g><path fill="#ed212f" d="M 148.980469 241.734375 L 132.953125 225.707031 L 225.707031 132.953125 L 241.734375 148.980469 L 148.980469 241.734375 " fill-opacity="1" fill-rule="nonzero"/><path fill="#ed212f" d="M 225.707031 241.734375 L 132.953125 148.980469 L 148.980469 132.953125 L 241.734375 225.707031 L 225.707031 241.734375 " fill-opacity="1" fill-rule="nonzero"/></svg>