<svg xmlns="http://www.w3.org/2000/svg" xmlns:xlink="http://www.w3.org/1999/xlink" width="500" zoomAndPan="magnify" viewBox="0 0 375 374.999991" height="500" preserveAspectRatio="xMidYMid meet" version="1.0"><defs><clipPath id="034c6e6a14"><path d="M 116.15625 112.5 L 258.65625 112.5 L 258.65625 262.5 L 116.15625 262.5 Z M 116.15625 112.5 " clip-rule="nonzero"/></clipPath><clipPath id="37ba7da602"><path d="M 116.15625 112.5 L 258.65625 112.5 L 258.65625 262.5 L 116.15625 262.5 Z M 116.15625 112.5 " clip-rule="nonzero"/></clipPath></defs><path fill="#000000" d="M 187.410156 149.625 C 171.667969 149.625 158.90625 163.046875 158.90625 179.601562 C 158.90625 196.15625 171.667969 209.578125 187.410156 209.578125 C 203.152344 209.578125 215.910156 196.15625 215.910156 179.601562 C 215.910156 163.046875 203.152344 149.625 187.410156 149.625 " fill-opacity="1" fill-rule="nonzero"/><g clip-path="url(#034c6e6a14)"><path fill="#000000" d="M 234.746094 239.234375 C 228.433594 223.804688 215.183594 214.15625 187.367188 214.15625 C 159.589844 214.15625 146.335938 223.78125 140.015625 239.175781 C 127.148438 226.117188 119.144531 207.792969 119.144531 187.5 C 119.144531 147.847656 149.707031 115.699219 187.410156 115.699219 C 225.113281 115.699219 255.675781 147.847656 255.675781 187.5 C 255.675781 207.824219 247.648438 226.171875 234.746094 239.234375 Z M 187.410156 112.558594 C 148.058594 112.558594 116.15625 146.113281 116.15625 187.5 C 116.15625 209.148438 124.882812 228.652344 138.839844 242.332031 C 151.566406 254.808594 168.640625 262.441406 187.410156 262.441406 C 206.148438 262.441406 223.195312 254.832031 235.917969 242.394531 C 249.910156 228.710938 258.664062 209.179688 258.664062 187.5 C 258.664062 146.113281 226.761719 112.558594 187.410156 112.558594 " fill-opacity="1" fill-rule="nonzero"/></g><path fill="#000000" d="M 187.410156 149.625 C 171.667969 149.625 158.90625 163.046875 158.90625 179.601562 C 158.90625 196.15625 171.667969 209.578125 187.410156 209.578125 C 203.152344 209.578125 215.910156 196.15625 215.910156 179.601562 C 215.910156 163.046875 203.152344 149.625 187.410156 149.625 " fill-opacity="1" fill-rule="nonzero"/><g clip-path="url(#37ba7da602)"><path fill="#000000" d="M 234.746094 239.234375 C 228.433594 223.804688 215.183594 214.15625 187.367188 214.15625 C 159.589844 214.15625 146.335938 223.78125 140.015625 239.175781 C 127.148438 226.117188 119.144531 207.792969 119.144531 187.5 C 119.144531 147.847656 149.707031 115.699219 187.410156 115.699219 C 225.113281 115.699219 255.675781 147.847656 255.675781 187.5 C 255.675781 207.824219 247.648438 226.171875 234.746094 239.234375 Z M 187.410156 112.558594 C 148.058594 112.558594 116.15625 146.113281 116.15625 187.5 C 116.15625 209.148438 124.882812 228.652344 138.839844 242.332031 C 151.566406 254.808594 168.640625 262.441406 187.410156 262.441406 C 206.148438 262.441406 223.195312 254.832031 235.917969 242.394531 C 249.910156 228.710938 258.664062 209.179688 258.664062 187.5 C 258.664062 146.113281 226.761719 112.558594 187.410156 112.558594 " fill-opacity="1" fill-rule="nonzero"/></g></svg>