<svg xmlns="http://www.w3.org/2000/svg" xmlns:xlink="http://www.w3.org/1999/xlink" width="500" zoomAndPan="magnify" viewBox="0 0 375 374.999991" height="500" preserveAspectRatio="xMidYMid meet" version="1.0"><defs><clipPath id="67b91a5da1"><path d="M 85.570312 87 L 288 87 L 288 289.570312 L 85.570312 289.570312 Z M 85.570312 87 " clip-rule="nonzero"/></clipPath></defs><g clip-path="url(#67b91a5da1)"><path fill="#000000" d="M 278.160156 199.925781 C 277.175781 198.933594 276.128906 198.011719 275.019531 197.164062 C 273.910156 196.316406 272.75 195.546875 271.535156 194.855469 C 270.320312 194.167969 269.0625 193.5625 267.765625 193.046875 C 266.46875 192.53125 265.140625 192.105469 263.785156 191.769531 C 262.425781 191.4375 261.054688 191.195312 259.664062 191.050781 C 258.277344 190.902344 256.882812 190.855469 255.488281 190.898438 C 254.089844 190.945312 252.703125 191.085938 251.328125 191.320312 C 249.949219 191.558594 248.597656 191.886719 247.265625 192.308594 L 244.78125 189.855469 L 246.023438 188.613281 C 246.476562 188.160156 246.882812 187.664062 247.242188 187.128906 C 247.597656 186.59375 247.898438 186.027344 248.144531 185.433594 C 248.390625 184.839844 248.578125 184.226562 248.703125 183.597656 C 248.828125 182.964844 248.890625 182.328125 248.890625 181.683594 C 248.890625 181.039062 248.828125 180.402344 248.703125 179.773438 C 248.578125 179.140625 248.390625 178.527344 248.144531 177.933594 C 247.898438 177.339844 247.597656 176.773438 247.242188 176.238281 C 246.882812 175.703125 246.476562 175.207031 246.023438 174.753906 L 238.796875 167.527344 C 238.96875 166.808594 239.054688 166.078125 239.058594 165.339844 C 239.058594 164.039062 238.808594 162.789062 238.308594 161.585938 C 237.8125 160.386719 237.101562 159.324219 236.183594 158.40625 L 228.957031 151.183594 C 229.128906 150.460938 229.214844 149.730469 229.21875 148.992188 C 229.21875 147.691406 228.96875 146.441406 228.46875 145.242188 C 227.972656 144.039062 227.261719 142.980469 226.339844 142.0625 L 222.515625 138.234375 C 221.925781 137.648438 221.273438 137.140625 220.554688 136.71875 C 219.839844 136.296875 219.078125 135.972656 218.277344 135.742188 C 217.476562 135.515625 216.660156 135.390625 215.828125 135.367188 C 214.996094 135.347656 214.175781 135.433594 213.363281 135.621094 L 206.105469 128.429688 C 205.648438 127.972656 205.152344 127.5625 204.617188 127.203125 C 204.082031 126.84375 203.515625 126.539062 202.917969 126.292969 C 202.324219 126.046875 201.707031 125.859375 201.074219 125.734375 C 200.441406 125.605469 199.804688 125.542969 199.15625 125.542969 C 198.511719 125.542969 197.875 125.605469 197.242188 125.734375 C 196.609375 125.859375 195.992188 126.046875 195.398438 126.292969 C 194.800781 126.539062 194.234375 126.84375 193.699219 127.203125 C 193.164062 127.5625 192.667969 127.972656 192.210938 128.429688 L 187.699219 132.90625 L 182.371094 127.609375 C 182.789062 126.234375 183.105469 124.835938 183.328125 123.417969 C 183.550781 121.996094 183.671875 120.570312 183.695312 119.132812 C 183.714844 117.695312 183.636719 116.261719 183.460938 114.835938 C 183.28125 113.410156 183.003906 112.003906 182.628906 110.617188 C 182.257812 109.226562 181.785156 107.871094 181.222656 106.550781 C 180.660156 105.230469 180.003906 103.953125 179.261719 102.722656 C 178.519531 101.492188 177.695312 100.316406 176.789062 99.203125 C 175.882812 98.085938 174.90625 97.039062 173.851562 96.058594 C 172.800781 95.082031 171.683594 94.179688 170.503906 93.355469 C 169.328125 92.535156 168.097656 91.796875 166.816406 91.144531 C 165.535156 90.496094 164.214844 89.9375 162.855469 89.46875 C 161.496094 89.003906 160.109375 88.632812 158.699219 88.359375 C 157.289062 88.085938 155.863281 87.914062 154.429688 87.839844 C 152.992188 87.765625 151.558594 87.789062 150.128906 87.917969 C 148.695312 88.042969 147.28125 88.269531 145.878906 88.59375 C 144.480469 88.917969 143.109375 89.335938 141.765625 89.851562 C 141.253906 90.054688 140.820312 90.367188 140.46875 90.792969 C 140.113281 91.214844 139.882812 91.699219 139.773438 92.238281 C 139.664062 92.777344 139.691406 93.3125 139.851562 93.839844 C 140.015625 94.367188 140.292969 94.828125 140.6875 95.214844 L 156.117188 110.578125 C 156.785156 111.242188 157.296875 112.007812 157.660156 112.871094 C 158.019531 113.738281 158.207031 114.640625 158.210938 115.582031 C 158.238281 116.414062 158.101562 117.222656 157.808594 118.003906 C 157.515625 118.785156 157.082031 119.480469 156.511719 120.089844 C 156.183594 120.414062 155.832031 120.699219 155.445312 120.949219 C 155.0625 121.199219 154.65625 121.410156 154.230469 121.578125 C 153.804688 121.746094 153.367188 121.871094 152.914062 121.949219 C 152.464844 122.03125 152.007812 122.0625 151.550781 122.050781 C 151.09375 122.039062 150.640625 121.980469 150.195312 121.878906 C 149.75 121.773438 149.316406 121.625 148.902344 121.4375 C 148.484375 121.246094 148.089844 121.015625 147.722656 120.742188 C 147.351562 120.472656 147.011719 120.167969 146.703125 119.832031 L 131.371094 104.433594 C 131.179688 104.242188 130.96875 104.078125 130.738281 103.941406 C 130.507812 103.804688 130.261719 103.695312 130.003906 103.621094 C 129.746094 103.542969 129.484375 103.496094 129.214844 103.484375 C 128.949219 103.472656 128.679688 103.492188 128.417969 103.546875 C 128.15625 103.601562 127.902344 103.683594 127.660156 103.800781 C 127.414062 103.917969 127.191406 104.058594 126.984375 104.230469 C 126.777344 104.402344 126.59375 104.597656 126.433594 104.8125 C 126.273438 105.03125 126.144531 105.261719 126.042969 105.511719 C 125.4375 107.050781 124.964844 108.628906 124.617188 110.246094 C 124.269531 111.863281 124.054688 113.5 123.972656 115.152344 C 123.890625 116.804688 123.941406 118.453125 124.128906 120.09375 C 124.3125 121.738281 124.628906 123.355469 125.074219 124.949219 C 125.519531 126.542969 126.09375 128.089844 126.789062 129.589844 C 127.488281 131.089844 128.300781 132.523438 129.230469 133.890625 C 130.160156 135.257812 131.195312 136.542969 132.332031 137.742188 C 133.46875 138.945312 134.695312 140.046875 136.011719 141.046875 C 137.957031 142.570312 140.054688 143.835938 142.308594 144.847656 C 144.558594 145.859375 146.902344 146.582031 149.332031 147.023438 C 151.757812 147.464844 154.207031 147.609375 156.671875 147.457031 C 159.132812 147.300781 161.542969 146.855469 163.898438 146.113281 L 164.292969 146.507812 L 151.019531 159.617188 C 150.382812 160.257812 150.066406 161.03125 150.070312 161.9375 L 150.070312 190.085938 L 141.765625 198.976562 L 139.214844 196.394531 C 138.910156 196.085938 138.554688 195.847656 138.152344 195.679688 C 137.75 195.511719 137.332031 195.429688 136.894531 195.429688 C 136.460938 195.429688 136.039062 195.511719 135.636719 195.679688 C 135.234375 195.847656 134.882812 196.085938 134.574219 196.394531 L 118.226562 212.742188 C 117.917969 213.046875 117.679688 213.402344 117.511719 213.804688 C 117.34375 214.207031 117.261719 214.628906 117.261719 215.0625 C 117.261719 215.5 117.34375 215.917969 117.511719 216.320312 C 117.679688 216.722656 117.917969 217.078125 118.226562 217.382812 L 119.210938 218.332031 L 85.535156 252.101562 L 90.179688 256.746094 L 123.820312 223.074219 L 155.171875 254.425781 L 124.765625 284.796875 L 129.410156 289.4375 L 159.78125 259.035156 L 160.726562 260.015625 C 161.035156 260.324219 161.390625 260.5625 161.792969 260.730469 C 162.195312 260.898438 162.613281 260.980469 163.050781 260.980469 C 163.484375 260.980469 163.90625 260.898438 164.308594 260.730469 C 164.710938 260.5625 165.0625 260.324219 165.371094 260.015625 L 181.714844 243.667969 C 182.027344 243.363281 182.265625 243.007812 182.433594 242.605469 C 182.601562 242.203125 182.683594 241.785156 182.683594 241.347656 C 182.683594 240.910156 182.601562 240.492188 182.433594 240.089844 C 182.265625 239.6875 182.027344 239.332031 181.714844 239.027344 L 179.917969 237.261719 L 187.535156 229.089844 L 204.144531 229.089844 C 205.046875 229.09375 205.824219 228.777344 206.464844 228.140625 L 226.308594 208.328125 L 228.726562 210.714844 C 227.984375 213.066406 227.535156 215.472656 227.378906 217.9375 C 227.222656 220.398438 227.363281 222.84375 227.804688 225.269531 C 228.246094 227.699219 228.972656 230.035156 229.988281 232.285156 C 231 234.535156 232.269531 236.628906 233.796875 238.570312 C 235.253906 240.433594 236.902344 242.117188 238.742188 243.609375 C 240.578125 245.101562 242.5625 246.371094 244.6875 247.417969 C 246.8125 248.460938 249.03125 249.253906 251.335938 249.796875 C 253.640625 250.339844 255.980469 250.617188 258.347656 250.632812 C 262.171875 250.644531 265.855469 249.925781 269.398438 248.472656 C 269.910156 248.269531 270.34375 247.957031 270.695312 247.535156 C 271.050781 247.109375 271.28125 246.628906 271.390625 246.089844 C 271.496094 245.550781 271.464844 245.023438 271.300781 244.503906 C 271.140625 243.980469 270.863281 243.527344 270.476562 243.144531 L 255.046875 227.746094 C 254.378906 227.085938 253.867188 226.320312 253.503906 225.453125 C 253.140625 224.585938 252.957031 223.683594 252.953125 222.746094 C 252.957031 221.902344 253.117188 221.09375 253.433594 220.3125 C 253.75 219.53125 254.199219 218.839844 254.785156 218.234375 C 255.105469 217.925781 255.457031 217.652344 255.835938 217.414062 C 256.210938 217.175781 256.609375 216.976562 257.023438 216.8125 C 257.441406 216.652344 257.867188 216.535156 258.308594 216.457031 C 258.746094 216.382812 259.191406 216.347656 259.636719 216.359375 C 260.082031 216.371094 260.523438 216.421875 260.960938 216.519531 C 261.394531 216.617188 261.816406 216.757812 262.226562 216.9375 C 262.632812 217.117188 263.019531 217.335938 263.386719 217.59375 C 263.75 217.851562 264.085938 218.140625 264.394531 218.464844 L 279.859375 233.859375 C 280.246094 234.242188 280.699219 234.511719 281.21875 234.667969 C 281.742188 234.824219 282.269531 234.851562 282.800781 234.742188 C 283.339844 234.636719 283.816406 234.410156 284.242188 234.0625 C 284.664062 233.714844 284.980469 233.289062 285.1875 232.78125 C 285.734375 231.398438 286.179688 229.984375 286.515625 228.539062 C 286.855469 227.089844 287.085938 225.625 287.210938 224.144531 C 287.332031 222.664062 287.347656 221.179688 287.253906 219.695312 C 287.15625 218.214844 286.953125 216.746094 286.644531 215.292969 C 286.332031 213.835938 285.917969 212.414062 285.398438 211.023438 C 284.875 209.628906 284.257812 208.28125 283.539062 206.980469 C 282.820312 205.679688 282.007812 204.4375 281.109375 203.253906 C 280.207031 202.074219 279.222656 200.964844 278.160156 199.925781 Z M 242.425781 181.683594 C 242.429688 182.589844 242.117188 183.363281 241.476562 184.003906 L 228.074219 197.34375 L 227.78125 197.636719 C 227.472656 197.949219 227.117188 198.1875 226.714844 198.355469 C 226.3125 198.519531 225.894531 198.605469 225.460938 198.605469 C 225.023438 198.605469 224.605469 198.519531 224.203125 198.355469 C 223.800781 198.1875 223.445312 197.949219 223.136719 197.636719 L 219.28125 193.8125 C 218.972656 193.507812 218.730469 193.152344 218.566406 192.75 C 218.398438 192.347656 218.3125 191.925781 218.3125 191.492188 C 218.3125 191.054688 218.398438 190.636719 218.566406 190.234375 C 218.730469 189.832031 218.972656 189.476562 219.28125 189.171875 L 221.210938 187.273438 L 235.300781 173.214844 L 241.511719 179.230469 C 242.171875 179.917969 242.476562 180.734375 242.425781 181.683594 Z M 232.617188 165.339844 C 232.625 166.242188 232.308594 167.015625 231.671875 167.660156 L 216.597656 182.5 L 214.671875 184.429688 C 214.363281 184.738281 214.007812 184.976562 213.605469 185.144531 C 213.203125 185.3125 212.785156 185.398438 212.347656 185.398438 C 211.914062 185.398438 211.496094 185.3125 211.09375 185.144531 C 210.691406 184.976562 210.335938 184.738281 210.027344 184.429688 L 209.765625 184.167969 C 211.371094 183.40625 212.808594 182.402344 214.082031 181.160156 L 217.941406 177.335938 C 218.25 177.027344 218.488281 176.675781 218.65625 176.273438 C 218.824219 175.871094 218.90625 175.449219 218.90625 175.015625 C 218.90625 174.578125 218.824219 174.160156 218.65625 173.757812 C 218.488281 173.355469 218.25 173 217.941406 172.695312 L 213.691406 168.476562 L 225.460938 156.738281 L 231.703125 162.886719 C 232.351562 163.574219 232.648438 164.394531 232.585938 165.339844 Z M 217.972656 142.84375 L 221.894531 146.539062 C 222.207031 146.847656 222.445312 147.203125 222.609375 147.605469 C 222.777344 148.007812 222.863281 148.425781 222.863281 148.859375 C 222.863281 149.296875 222.777344 149.714844 222.609375 150.117188 C 222.445312 150.519531 222.207031 150.875 221.894531 151.183594 L 209.179688 163.867188 L 200.679688 155.398438 L 213.394531 142.714844 C 213.707031 142.429688 214.0625 142.210938 214.460938 142.0625 C 214.859375 141.917969 215.269531 141.847656 215.695312 141.859375 C 216.117188 141.875 216.523438 141.964844 216.914062 142.136719 C 217.300781 142.304688 217.644531 142.542969 217.941406 142.84375 Z M 196.917969 133.039062 C 197.226562 132.722656 197.582031 132.480469 197.988281 132.308594 C 198.394531 132.140625 198.816406 132.054688 199.257812 132.054688 C 199.695312 132.054688 200.117188 132.140625 200.523438 132.308594 C 200.929688 132.480469 201.285156 132.722656 201.59375 133.039062 L 207.738281 139.183594 L 195.96875 150.921875 L 188.613281 143.597656 C 188.222656 143.207031 187.765625 142.910156 187.339844 142.550781 Z M 163.574219 139.28125 C 162.609375 139.667969 161.628906 139.992188 160.625 140.25 C 159.621094 140.507812 158.605469 140.699219 157.578125 140.828125 C 156.546875 140.953125 155.515625 141.011719 154.480469 141.003906 C 153.441406 140.996094 152.410156 140.917969 151.382812 140.777344 C 150.359375 140.632812 149.34375 140.425781 148.347656 140.148438 C 147.347656 139.875 146.371094 139.535156 145.414062 139.136719 C 144.457031 138.734375 143.535156 138.269531 142.640625 137.75 C 141.742188 137.226562 140.886719 136.648438 140.066406 136.011719 C 139.207031 135.355469 138.398438 134.644531 137.632812 133.878906 C 136.867188 133.117188 136.15625 132.304688 135.5 131.445312 C 134.84375 130.585938 134.25 129.6875 133.710938 128.746094 C 133.175781 127.808594 132.703125 126.839844 132.296875 125.839844 C 131.886719 124.835938 131.546875 123.8125 131.277344 122.765625 C 131.003906 121.71875 130.804688 120.660156 130.671875 119.585938 C 130.542969 118.511719 130.484375 117.4375 130.496094 116.355469 C 130.507812 115.273438 130.59375 114.199219 130.75 113.128906 L 142.222656 124.601562 C 142.835938 125.222656 143.5 125.78125 144.222656 126.273438 C 144.941406 126.761719 145.703125 127.179688 146.503906 127.523438 C 147.304688 127.863281 148.132812 128.125 148.984375 128.304688 C 149.835938 128.488281 150.699219 128.582031 151.570312 128.59375 C 152.441406 128.609375 153.304688 128.535156 154.164062 128.378906 C 155.019531 128.222656 155.855469 127.984375 156.664062 127.664062 C 157.476562 127.34375 158.246094 126.949219 158.980469 126.476562 C 159.714844 126.007812 160.394531 125.46875 161.023438 124.863281 C 162.234375 123.648438 163.164062 122.25 163.816406 120.664062 C 164.46875 119.078125 164.789062 117.425781 164.78125 115.710938 C 164.78125 113.90625 164.433594 112.167969 163.734375 110.5 C 163.039062 108.835938 162.046875 107.367188 160.761719 106.097656 L 149.253906 94.492188 C 151.140625 94.210938 153.035156 94.152344 154.9375 94.316406 C 156.839844 94.480469 158.699219 94.863281 160.511719 95.464844 C 162.324219 96.066406 164.039062 96.871094 165.664062 97.878906 C 167.285156 98.886719 168.765625 100.066406 170.109375 101.425781 C 170.949219 102.238281 171.71875 103.109375 172.429688 104.035156 C 173.136719 104.964844 173.773438 105.9375 174.339844 106.960938 C 174.902344 107.980469 175.390625 109.039062 175.800781 110.132812 C 176.210938 111.226562 176.535156 112.34375 176.78125 113.484375 C 177.023438 114.625 177.183594 115.78125 177.257812 116.945312 C 177.332031 118.109375 177.324219 119.273438 177.226562 120.4375 C 177.128906 121.601562 176.945312 122.75 176.679688 123.886719 C 176.414062 125.023438 176.066406 126.132812 175.636719 127.21875 C 175.390625 127.824219 175.335938 128.449219 175.464844 129.09375 C 175.597656 129.734375 175.894531 130.285156 176.355469 130.75 L 183.121094 137.550781 L 181.128906 139.542969 C 180.09375 139.3125 179.046875 139.191406 177.988281 139.183594 C 176.925781 139.175781 175.878906 139.28125 174.839844 139.5 C 173.800781 139.714844 172.800781 140.039062 171.832031 140.472656 C 170.863281 140.902344 169.953125 141.433594 169.097656 142.0625 L 167.070312 140 C 166.605469 139.539062 166.054688 139.242188 165.414062 139.113281 C 164.773438 138.980469 164.148438 139.039062 163.539062 139.28125 Z M 163.050781 253.085938 L 125.160156 215.195312 L 136.894531 203.457031 L 174.785156 241.347656 Z M 202.804688 222.550781 L 186.097656 222.550781 C 185.152344 222.550781 184.355469 222.902344 183.710938 223.59375 L 175.308594 232.652344 L 146.410156 203.71875 L 155.726562 193.714844 C 156.3125 193.089844 156.605469 192.347656 156.609375 191.492188 L 156.609375 163.441406 L 171.84375 148.238281 C 172.25 147.855469 172.6875 147.507812 173.160156 147.207031 C 173.632812 146.902344 174.128906 146.648438 174.652344 146.441406 C 175.171875 146.234375 175.707031 146.074219 176.257812 145.96875 C 176.808594 145.863281 177.363281 145.8125 177.925781 145.8125 C 178.484375 145.8125 179.039062 145.863281 179.589844 145.96875 C 180.140625 146.074219 180.675781 146.234375 181.199219 146.441406 C 181.71875 146.648438 182.214844 146.902344 182.6875 147.207031 C 183.160156 147.507812 183.597656 147.855469 184.003906 148.238281 L 210.976562 175.144531 L 209.472656 176.648438 C 209.015625 177.109375 208.519531 177.519531 207.984375 177.882812 C 207.445312 178.242188 206.878906 178.546875 206.28125 178.796875 C 205.683594 179.046875 205.066406 179.234375 204.433594 179.359375 C 203.796875 179.488281 203.15625 179.550781 202.507812 179.550781 C 201.863281 179.550781 201.21875 179.488281 200.585938 179.359375 C 199.949219 179.234375 199.335938 179.046875 198.738281 178.796875 C 198.140625 178.546875 197.574219 178.242188 197.035156 177.882812 C 196.496094 177.519531 196 177.109375 195.546875 176.648438 L 181.878906 162.886719 C 181.574219 162.578125 181.21875 162.339844 180.816406 162.175781 C 180.414062 162.007812 179.996094 161.925781 179.558594 161.925781 C 179.125 161.925781 178.707031 162.011719 178.304688 162.175781 C 177.902344 162.34375 177.546875 162.582031 177.238281 162.886719 C 176.933594 163.195312 176.695312 163.550781 176.527344 163.953125 C 176.363281 164.355469 176.277344 164.773438 176.277344 165.207031 C 176.277344 165.644531 176.359375 166.0625 176.527344 166.464844 C 176.695312 166.867188 176.929688 167.21875 177.238281 167.527344 C 177.804688 168.09375 178.34375 168.683594 178.855469 169.304688 C 179.367188 169.921875 179.84375 170.5625 180.292969 171.230469 C 180.738281 171.894531 181.152344 172.582031 181.53125 173.289062 C 181.910156 173.992188 182.253906 174.71875 182.558594 175.457031 C 182.867188 176.199219 183.140625 176.953125 183.371094 177.71875 C 183.605469 178.484375 183.800781 179.261719 183.957031 180.046875 C 184.113281 180.832031 184.234375 181.625 184.3125 182.421875 C 184.390625 183.222656 184.429688 184.019531 184.429688 184.824219 C 184.429688 185.625 184.390625 186.425781 184.3125 187.222656 C 184.234375 188.019531 184.113281 188.8125 183.957031 189.597656 C 183.800781 190.382812 183.605469 191.160156 183.371094 191.925781 C 183.140625 192.695312 182.867188 193.449219 182.558594 194.1875 C 182.253906 194.929688 181.910156 195.652344 181.53125 196.355469 C 181.152344 197.0625 180.738281 197.75 180.292969 198.414062 C 179.84375 199.082031 179.367188 199.722656 178.855469 200.339844 C 178.34375 200.960938 177.804688 201.550781 177.238281 202.117188 L 181.878906 206.757812 C 183.324219 205.320312 184.613281 203.757812 185.746094 202.0625 C 186.882812 200.371094 187.839844 198.582031 188.617188 196.699219 C 189.398438 194.816406 189.988281 192.875 190.382812 190.878906 C 190.777344 188.878906 190.972656 186.859375 190.96875 184.824219 C 190.976562 183.53125 190.898438 182.246094 190.738281 180.964844 L 190.9375 181.160156 C 192.4375 182.683594 194.167969 183.867188 196.128906 184.707031 C 198.09375 185.550781 200.144531 185.992188 202.28125 186.03125 L 205.550781 189.300781 C 206.421875 190.167969 207.421875 190.847656 208.550781 191.339844 C 209.679688 191.828125 210.859375 192.097656 212.089844 192.144531 C 212.136719 193.375 212.402344 194.554688 212.894531 195.683594 C 213.386719 196.8125 214.066406 197.8125 214.933594 198.683594 L 218.625 202.117188 C 219.414062 202.917969 220.316406 203.550781 221.339844 204.011719 Z M 280.480469 225.359375 L 268.972656 213.886719 C 268.363281 213.261719 267.699219 212.703125 266.976562 212.210938 C 266.257812 211.71875 265.5 211.300781 264.695312 210.957031 C 263.894531 210.613281 263.066406 210.351562 262.214844 210.171875 C 261.363281 209.988281 260.5 209.894531 259.628906 209.878906 C 258.753906 209.867188 257.890625 209.941406 257.03125 210.097656 C 256.175781 210.257812 255.339844 210.496094 254.53125 210.816406 C 253.71875 211.136719 252.949219 211.535156 252.214844 212.007812 C 251.480469 212.480469 250.800781 213.019531 250.175781 213.625 C 248.957031 214.828125 248.023438 216.222656 247.371094 217.804688 C 246.71875 219.386719 246.402344 221.035156 246.414062 222.746094 C 246.410156 224.558594 246.757812 226.300781 247.453125 227.972656 C 248.152344 229.644531 249.144531 231.117188 250.4375 232.390625 L 261.910156 243.832031 C 260.839844 243.980469 259.765625 244.0625 258.6875 244.070312 C 257.605469 244.078125 256.53125 244.015625 255.457031 243.882812 C 254.386719 243.75 253.328125 243.546875 252.285156 243.273438 C 251.238281 243 250.214844 242.660156 249.214844 242.253906 C 248.214844 241.84375 247.246094 241.375 246.308594 240.839844 C 245.367188 240.304688 244.46875 239.710938 243.609375 239.058594 C 242.75 238.402344 241.933594 237.695312 241.167969 236.9375 C 240.402344 236.175781 239.6875 235.371094 239.027344 234.515625 C 238.390625 233.699219 237.8125 232.847656 237.289062 231.957031 C 236.769531 231.066406 236.304688 230.144531 235.902344 229.195312 C 235.5 228.242188 235.164062 227.269531 234.886719 226.273438 C 234.613281 225.28125 234.402344 224.269531 234.261719 223.25 C 234.117188 222.226562 234.042969 221.199219 234.035156 220.164062 C 234.027344 219.132812 234.085938 218.105469 234.210938 217.078125 C 234.335938 216.054688 234.53125 215.042969 234.789062 214.042969 C 235.046875 213.042969 235.371094 212.066406 235.757812 211.105469 C 235.992188 210.492188 236.039062 209.867188 235.898438 209.222656 C 235.753906 208.582031 235.445312 208.03125 234.972656 207.578125 L 231.113281 203.71875 L 232.554688 202.28125 L 240.398438 194.5 L 244.257812 198.355469 C 244.722656 198.828125 245.28125 199.125 245.929688 199.257812 C 246.578125 199.390625 247.207031 199.328125 247.820312 199.078125 C 248.3125 198.894531 248.808594 198.726562 249.3125 198.578125 C 249.8125 198.425781 250.320312 198.292969 250.832031 198.175781 C 251.339844 198.058594 251.855469 197.957031 252.371094 197.871094 C 252.890625 197.789062 253.410156 197.71875 253.929688 197.667969 C 254.453125 197.617188 254.976562 197.585938 255.5 197.566406 C 256.023438 197.550781 256.546875 197.550781 257.070312 197.566406 C 257.59375 197.582031 258.117188 197.613281 258.636719 197.664062 C 259.160156 197.714844 259.679688 197.78125 260.195312 197.863281 C 260.714844 197.949219 261.230469 198.046875 261.738281 198.164062 C 262.25 198.28125 262.757812 198.414062 263.261719 198.5625 C 263.761719 198.710938 264.257812 198.878906 264.75 199.058594 C 265.242188 199.238281 265.726562 199.4375 266.207031 199.648438 C 266.6875 199.863281 267.160156 200.089844 267.621094 200.332031 C 268.085938 200.574219 268.542969 200.832031 268.992188 201.105469 C 269.4375 201.375 269.878906 201.664062 270.308594 201.964844 C 270.738281 202.261719 271.15625 202.578125 271.566406 202.90625 C 271.976562 203.230469 272.375 203.574219 272.761719 203.925781 C 273.148438 204.277344 273.523438 204.644531 273.886719 205.019531 C 274.25 205.398438 274.601562 205.785156 274.941406 206.1875 C 275.28125 206.585938 275.605469 206.996094 275.917969 207.417969 C 276.230469 207.839844 276.527344 208.269531 276.8125 208.707031 C 277.097656 209.148438 277.367188 209.597656 277.625 210.054688 C 277.878906 210.511719 278.121094 210.976562 278.347656 211.449219 C 278.574219 211.921875 278.785156 212.402344 278.976562 212.890625 C 279.171875 213.375 279.351562 213.867188 279.515625 214.367188 C 279.679688 214.863281 279.824219 215.367188 279.957031 215.875 C 280.085938 216.382812 280.203125 216.894531 280.300781 217.410156 C 280.398438 217.921875 280.480469 218.441406 280.542969 218.960938 C 280.609375 219.480469 280.65625 220.003906 280.6875 220.527344 C 280.71875 221.046875 280.734375 221.574219 280.730469 222.097656 C 280.726562 222.621094 280.707031 223.144531 280.671875 223.667969 C 280.636719 224.191406 280.582031 224.710938 280.511719 225.230469 Z M 280.480469 225.359375 " fill-opacity="1" fill-rule="nonzero"/><path fill="#000000" d="M 278.160156 199.925781 C 277.175781 198.933594 276.128906 198.011719 275.019531 197.164062 C 273.910156 196.316406 272.75 195.546875 271.535156 194.855469 C 270.320312 194.167969 269.0625 193.5625 267.765625 193.046875 C 266.46875 192.53125 265.140625 192.105469 263.785156 191.769531 C 262.425781 191.4375 261.054688 191.195312 259.664062 191.050781 C 258.277344 190.902344 256.882812 190.855469 255.488281 190.898438 C 254.089844 190.945312 252.703125 191.085938 251.328125 191.320312 C 249.949219 191.558594 248.597656 191.886719 247.265625 192.308594 L 244.78125 189.855469 L 246.023438 188.613281 C 246.476562 188.160156 246.882812 187.664062 247.242188 187.128906 C 247.597656 186.59375 247.898438 186.027344 248.144531 185.433594 C 248.390625 184.839844 248.578125 184.226562 248.703125 183.597656 C 248.828125 182.964844 248.890625 182.328125 248.890625 181.683594 C 248.890625 181.039062 248.828125 180.402344 248.703125 179.773438 C 248.578125 179.140625 248.390625 178.527344 248.144531 177.933594 C 247.898438 177.339844 247.597656 176.773438 247.242188 176.238281 C 246.882812 175.703125 246.476562 175.207031 246.023438 174.753906 L 238.796875 167.527344 C 238.96875 166.808594 239.054688 166.078125 239.058594 165.339844 C 239.058594 164.039062 238.808594 162.789062 238.308594 161.585938 C 237.8125 160.386719 237.101562 159.324219 236.183594 158.40625 L 228.957031 151.183594 C 229.128906 150.460938 229.214844 149.730469 229.21875 148.992188 C 229.21875 147.691406 228.96875 146.441406 228.46875 145.242188 C 227.972656 144.039062 227.261719 142.980469 226.339844 142.0625 L 222.515625 138.234375 C 221.925781 137.648438 221.273438 137.140625 220.554688 136.71875 C 219.839844 136.296875 219.078125 135.972656 218.277344 135.742188 C 217.476562 135.515625 216.660156 135.390625 215.828125 135.367188 C 214.996094 135.347656 214.175781 135.433594 213.363281 135.621094 L 206.105469 128.429688 C 205.648438 127.972656 205.152344 127.5625 204.617188 127.203125 C 204.082031 126.84375 203.515625 126.539062 202.917969 126.292969 C 202.324219 126.046875 201.707031 125.859375 201.074219 125.734375 C 200.441406 125.605469 199.804688 125.542969 199.15625 125.542969 C 198.511719 125.542969 197.875 125.605469 197.242188 125.734375 C 196.609375 125.859375 195.992188 126.046875 195.398438 126.292969 C 194.800781 126.539062 194.234375 126.84375 193.699219 127.203125 C 193.164062 127.5625 192.667969 127.972656 192.210938 128.429688 L 187.699219 132.90625 L 182.371094 127.609375 C 182.789062 126.234375 183.105469 124.835938 183.328125 123.417969 C 183.550781 121.996094 183.671875 120.570312 183.695312 119.132812 C 183.714844 117.695312 183.636719 116.261719 183.460938 114.835938 C 183.28125 113.410156 183.003906 112.003906 182.628906 110.617188 C 182.257812 109.226562 181.785156 107.871094 181.222656 106.550781 C 180.660156 105.230469 180.003906 103.953125 179.261719 102.722656 C 178.519531 101.492188 177.695312 100.316406 176.789062 99.203125 C 175.882812 98.085938 174.90625 97.039062 173.851562 96.058594 C 172.800781 95.082031 171.683594 94.179688 170.503906 93.355469 C 169.328125 92.535156 168.097656 91.796875 166.816406 91.144531 C 165.535156 90.496094 164.214844 89.9375 162.855469 89.46875 C 161.496094 89.003906 160.109375 88.632812 158.699219 88.359375 C 157.289062 88.085938 155.863281 87.914062 154.429688 87.839844 C 152.992188 87.765625 151.558594 87.789062 150.128906 87.917969 C 148.695312 88.042969 147.28125 88.269531 145.878906 88.59375 C 144.480469 88.917969 143.109375 89.335938 141.765625 89.851562 C 141.253906 90.054688 140.820312 90.367188 140.46875 90.792969 C 140.113281 91.214844 139.882812 91.699219 139.773438 92.238281 C 139.664062 92.777344 139.691406 93.3125 139.851562 93.839844 C 140.015625 94.367188 140.292969 94.828125 140.6875 95.214844 L 156.117188 110.578125 C 156.785156 111.242188 157.296875 112.007812 157.660156 112.871094 C 158.019531 113.738281 158.207031 114.640625 158.210938 115.582031 C 158.238281 116.414062 158.101562 117.222656 157.808594 118.003906 C 157.515625 118.785156 157.082031 119.480469 156.511719 120.089844 C 156.183594 120.414062 155.832031 120.699219 155.445312 120.949219 C 155.0625 121.199219 154.65625 121.410156 154.230469 121.578125 C 153.804688 121.746094 153.367188 121.871094 152.914062 121.949219 C 152.464844 122.03125 152.007812 122.0625 151.550781 122.050781 C 151.09375 122.039062 150.640625 121.980469 150.195312 121.878906 C 149.75 121.773438 149.316406 121.625 148.902344 121.4375 C 148.484375 121.246094 148.089844 121.015625 147.722656 120.742188 C 147.351562 120.472656 147.011719 120.167969 146.703125 119.832031 L 131.371094 104.433594 C 131.179688 104.242188 130.96875 104.078125 130.738281 103.941406 C 130.507812 103.804688 130.261719 103.695312 130.003906 103.621094 C 129.746094 103.542969 129.484375 103.496094 129.214844 103.484375 C 128.949219 103.472656 128.679688 103.492188 128.417969 103.546875 C 128.15625 103.601562 127.902344 103.683594 127.660156 103.800781 C 127.414062 103.917969 127.191406 104.058594 126.984375 104.230469 C 126.777344 104.402344 126.59375 104.597656 126.433594 104.8125 C 126.273438 105.03125 126.144531 105.261719 126.042969 105.511719 C 125.4375 107.050781 124.964844 108.628906 124.617188 110.246094 C 124.269531 111.863281 124.054688 113.5 123.972656 115.152344 C 123.890625 116.804688 123.941406 118.453125 124.128906 120.09375 C 124.3125 121.738281 124.628906 123.355469 125.074219 124.949219 C 125.519531 126.542969 126.09375 128.089844 126.789062 129.589844 C 127.488281 131.089844 128.300781 132.523438 129.230469 133.890625 C 130.160156 135.257812 131.195312 136.542969 132.332031 137.742188 C 133.46875 138.945312 134.695312 140.046875 136.011719 141.046875 C 137.957031 142.570312 140.054688 143.835938 142.308594 144.847656 C 144.558594 145.859375 146.902344 146.582031 149.332031 147.023438 C 151.757812 147.464844 154.207031 147.609375 156.671875 147.457031 C 159.132812 147.300781 161.542969 146.855469 163.898438 146.113281 L 164.292969 146.507812 L 151.019531 159.617188 C 150.382812 160.257812 150.066406 161.03125 150.070312 161.9375 L 150.070312 190.085938 L 141.765625 198.976562 L 139.214844 196.394531 C 138.910156 196.085938 138.554688 195.847656 138.152344 195.679688 C 137.75 195.511719 137.332031 195.429688 136.894531 195.429688 C 136.460938 195.429688 136.039062 195.511719 135.636719 195.679688 C 135.234375 195.847656 134.882812 196.085938 134.574219 196.394531 L 118.226562 212.742188 C 117.917969 213.046875 117.679688 213.402344 117.511719 213.804688 C 117.34375 214.207031 117.261719 214.628906 117.261719 215.0625 C 117.261719 215.5 117.34375 215.917969 117.511719 216.320312 C 117.679688 216.722656 117.917969 217.078125 118.226562 217.382812 L 119.210938 218.332031 L 85.535156 252.101562 L 90.179688 256.746094 L 123.820312 223.074219 L 155.171875 254.425781 L 124.765625 284.796875 L 129.410156 289.4375 L 159.78125 259.035156 L 160.726562 260.015625 C 161.035156 260.324219 161.390625 260.5625 161.792969 260.730469 C 162.195312 260.898438 162.613281 260.980469 163.050781 260.980469 C 163.484375 260.980469 163.90625 260.898438 164.308594 260.730469 C 164.710938 260.5625 165.0625 260.324219 165.371094 260.015625 L 181.714844 243.667969 C 182.027344 243.363281 182.265625 243.007812 182.433594 242.605469 C 182.601562 242.203125 182.683594 241.785156 182.683594 241.347656 C 182.683594 240.910156 182.601562 240.492188 182.433594 240.089844 C 182.265625 239.6875 182.027344 239.332031 181.714844 239.027344 L 179.917969 237.261719 L 187.535156 229.089844 L 204.144531 229.089844 C 205.046875 229.09375 205.824219 228.777344 206.464844 228.140625 L 226.308594 208.328125 L 228.726562 210.714844 C 227.984375 213.066406 227.535156 215.472656 227.378906 217.9375 C 227.222656 220.398438 227.363281 222.84375 227.804688 225.269531 C 228.246094 227.699219 228.972656 230.035156 229.988281 232.285156 C 231 234.535156 232.269531 236.628906 233.796875 238.570312 C 235.253906 240.433594 236.902344 242.117188 238.742188 243.609375 C 240.578125 245.101562 242.5625 246.371094 244.6875 247.417969 C 246.8125 248.460938 249.03125 249.253906 251.335938 249.796875 C 253.640625 250.339844 255.980469 250.617188 258.347656 250.632812 C 262.171875 250.644531 265.855469 249.925781 269.398438 248.472656 C 269.910156 248.269531 270.34375 247.957031 270.695312 247.535156 C 271.050781 247.109375 271.28125 246.628906 271.390625 246.089844 C 271.496094 245.550781 271.464844 245.023438 271.300781 244.503906 C 271.140625 243.980469 270.863281 243.527344 270.476562 243.144531 L 255.046875 227.746094 C 254.378906 227.085938 253.867188 226.320312 253.503906 225.453125 C 253.140625 224.585938 252.957031 223.683594 252.953125 222.746094 C 252.957031 221.902344 253.117188 221.09375 253.433594 220.3125 C 253.75 219.53125 254.199219 218.839844 254.785156 218.234375 C 255.105469 217.925781 255.457031 217.652344 255.835938 217.414062 C 256.210938 217.175781 256.609375 216.976562 257.023438 216.8125 C 257.441406 216.652344 257.867188 216.535156 258.308594 216.457031 C 258.746094 216.382812 259.191406 216.347656 259.636719 216.359375 C 260.082031 216.371094 260.523438 216.421875 260.960938 216.519531 C 261.394531 216.617188 261.816406 216.757812 262.226562 216.9375 C 262.632812 217.117188 263.019531 217.335938 263.386719 217.59375 C 263.75 217.851562 264.085938 218.140625 264.394531 218.464844 L 279.859375 233.859375 C 280.246094 234.242188 280.699219 234.511719 281.21875 234.667969 C 281.742188 234.824219 282.269531 234.851562 282.800781 234.742188 C 283.339844 234.636719 283.816406 234.410156 284.242188 234.0625 C 284.664062 233.714844 284.980469 233.289062 285.1875 232.78125 C 285.734375 231.398438 286.179688 229.984375 286.515625 228.539062 C 286.855469 227.089844 287.085938 225.625 287.210938 224.144531 C 287.332031 222.664062 287.347656 221.179688 287.253906 219.695312 C 287.15625 218.214844 286.953125 216.746094 286.644531 215.292969 C 286.332031 213.835938 285.917969 212.414062 285.398438 211.023438 C 284.875 209.628906 284.257812 208.28125 283.539062 206.980469 C 282.820312 205.679688 282.007812 204.4375 281.109375 203.253906 C 280.207031 202.074219 279.222656 200.964844 278.160156 199.925781 Z M 242.425781 181.683594 C 242.429688 182.589844 242.117188 183.363281 241.476562 184.003906 L 228.074219 197.34375 L 227.78125 197.636719 C 227.472656 197.949219 227.117188 198.1875 226.714844 198.355469 C 226.3125 198.519531 225.894531 198.605469 225.460938 198.605469 C 225.023438 198.605469 224.605469 198.519531 224.203125 198.355469 C 223.800781 198.1875 223.445312 197.949219 223.136719 197.636719 L 219.28125 193.8125 C 218.972656 193.507812 218.730469 193.152344 218.566406 192.75 C 218.398438 192.347656 218.3125 191.925781 218.3125 191.492188 C 218.3125 191.054688 218.398438 190.636719 218.566406 190.234375 C 218.730469 189.832031 218.972656 189.476562 219.28125 189.171875 L 221.210938 187.273438 L 235.300781 173.214844 L 241.511719 179.230469 C 242.171875 179.917969 242.476562 180.734375 242.425781 181.683594 Z M 232.617188 165.339844 C 232.625 166.242188 232.308594 167.015625 231.671875 167.660156 L 216.597656 182.5 L 214.671875 184.429688 C 214.363281 184.738281 214.007812 184.976562 213.605469 185.144531 C 213.203125 185.3125 212.785156 185.398438 212.347656 185.398438 C 211.914062 185.398438 211.496094 185.3125 211.09375 185.144531 C 210.691406 184.976562 210.335938 184.738281 210.027344 184.429688 L 209.765625 184.167969 C 211.371094 183.40625 212.808594 182.402344 214.082031 181.160156 L 217.941406 177.335938 C 218.25 177.027344 218.488281 176.675781 218.65625 176.273438 C 218.824219 175.871094 218.90625 175.449219 218.90625 175.015625 C 218.90625 174.578125 218.824219 174.160156 218.65625 173.757812 C 218.488281 173.355469 218.25 173 217.941406 172.695312 L 213.691406 168.476562 L 225.460938 156.738281 L 231.703125 162.886719 C 232.351562 163.574219 232.648438 164.394531 232.585938 165.339844 Z M 217.972656 142.84375 L 221.894531 146.539062 C 222.207031 146.847656 222.445312 147.203125 222.609375 147.605469 C 222.777344 148.007812 222.863281 148.425781 222.863281 148.859375 C 222.863281 149.296875 222.777344 149.714844 222.609375 150.117188 C 222.445312 150.519531 222.207031 150.875 221.894531 151.183594 L 209.179688 163.867188 L 200.679688 155.398438 L 213.394531 142.714844 C 213.707031 142.429688 214.0625 142.210938 214.460938 142.0625 C 214.859375 141.917969 215.269531 141.847656 215.695312 141.859375 C 216.117188 141.875 216.523438 141.964844 216.914062 142.136719 C 217.300781 142.304688 217.644531 142.542969 217.941406 142.84375 Z M 196.917969 133.039062 C 197.226562 132.722656 197.582031 132.480469 197.988281 132.308594 C 198.394531 132.140625 198.816406 132.054688 199.257812 132.054688 C 199.695312 132.054688 200.117188 132.140625 200.523438 132.308594 C 200.929688 132.480469 201.285156 132.722656 201.59375 133.039062 L 207.738281 139.183594 L 195.96875 150.921875 L 188.613281 143.597656 C 188.222656 143.207031 187.765625 142.910156 187.339844 142.550781 Z M 163.574219 139.28125 C 162.609375 139.667969 161.628906 139.992188 160.625 140.25 C 159.621094 140.507812 158.605469 140.699219 157.578125 140.828125 C 156.546875 140.953125 155.515625 141.011719 154.480469 141.003906 C 153.441406 140.996094 152.410156 140.917969 151.382812 140.777344 C 150.359375 140.632812 149.34375 140.425781 148.347656 140.148438 C 147.347656 139.875 146.371094 139.535156 145.414062 139.136719 C 144.457031 138.734375 143.535156 138.269531 142.640625 137.75 C 141.742188 137.226562 140.886719 136.648438 140.066406 136.011719 C 139.207031 135.355469 138.398438 134.644531 137.632812 133.878906 C 136.867188 133.117188 136.15625 132.304688 135.5 131.445312 C 134.84375 130.585938 134.25 129.6875 133.710938 128.746094 C 133.175781 127.808594 132.703125 126.839844 132.296875 125.839844 C 131.886719 124.835938 131.546875 123.8125 131.277344 122.765625 C 131.003906 121.71875 130.804688 120.660156 130.671875 119.585938 C 130.542969 118.511719 130.484375 117.4375 130.496094 116.355469 C 130.507812 115.273438 130.59375 114.199219 130.75 113.128906 L 142.222656 124.601562 C 142.835938 125.222656 143.5 125.78125 144.222656 126.273438 C 144.941406 126.761719 145.703125 127.179688 146.503906 127.523438 C 147.304688 127.863281 148.132812 128.125 148.984375 128.304688 C 149.835938 128.488281 150.699219 128.582031 151.570312 128.59375 C 152.441406 128.609375 153.304688 128.535156 154.164062 128.378906 C 155.019531 128.222656 155.855469 127.984375 156.664062 127.664062 C 157.476562 127.34375 158.246094 126.949219 158.980469 126.476562 C 159.714844 126.007812 160.394531 125.46875 161.023438 124.863281 C 162.234375 123.648438 163.164062 122.25 163.816406 120.664062 C 164.46875 119.078125 164.789062 117.425781 164.78125 115.710938 C 164.78125 113.90625 164.433594 112.167969 163.734375 110.5 C 163.039062 108.835938 162.046875 107.367188 160.761719 106.097656 L 149.253906 94.492188 C 151.140625 94.210938 153.035156 94.152344 154.9375 94.316406 C 156.839844 94.480469 158.699219 94.863281 160.511719 95.464844 C 162.324219 96.066406 164.039062 96.871094 165.664062 97.878906 C 167.285156 98.886719 168.765625 100.066406 170.109375 101.425781 C 170.949219 102.238281 171.71875 103.109375 172.429688 104.035156 C 173.136719 104.964844 173.773438 105.9375 174.339844 106.960938 C 174.902344 107.980469 175.390625 109.039062 175.800781 110.132812 C 176.210938 111.226562 176.535156 112.34375 176.78125 113.484375 C 177.023438 114.625 177.183594 115.78125 177.257812 116.945312 C 177.332031 118.109375 177.324219 119.273438 177.226562 120.4375 C 177.128906 121.601562 176.945312 122.75 176.679688 123.886719 C 176.414062 125.023438 176.066406 126.132812 175.636719 127.21875 C 175.390625 127.824219 175.335938 128.449219 175.464844 129.09375 C 175.597656 129.734375 175.894531 130.285156 176.355469 130.75 L 183.121094 137.550781 L 181.128906 139.542969 C 180.09375 139.3125 179.046875 139.191406 177.988281 139.183594 C 176.925781 139.175781 175.878906 139.28125 174.839844 139.5 C 173.800781 139.714844 172.800781 140.039062 171.832031 140.472656 C 170.863281 140.902344 169.953125 141.433594 169.097656 142.0625 L 167.070312 140 C 166.605469 139.539062 166.054688 139.242188 165.414062 139.113281 C 164.773438 138.980469 164.148438 139.039062 163.539062 139.28125 Z M 163.050781 253.085938 L 125.160156 215.195312 L 136.894531 203.457031 L 174.785156 241.347656 Z M 202.804688 222.550781 L 186.097656 222.550781 C 185.152344 222.550781 184.355469 222.902344 183.710938 223.59375 L 175.308594 232.652344 L 146.410156 203.71875 L 155.726562 193.714844 C 156.3125 193.089844 156.605469 192.347656 156.609375 191.492188 L 156.609375 163.441406 L 171.84375 148.238281 C 172.25 147.855469 172.6875 147.507812 173.160156 147.207031 C 173.632812 146.902344 174.128906 146.648438 174.652344 146.441406 C 175.171875 146.234375 175.707031 146.074219 176.257812 145.96875 C 176.808594 145.863281 177.363281 145.8125 177.925781 145.8125 C 178.484375 145.8125 179.039062 145.863281 179.589844 145.96875 C 180.140625 146.074219 180.675781 146.234375 181.199219 146.441406 C 181.71875 146.648438 182.214844 146.902344 182.6875 147.207031 C 183.160156 147.507812 183.597656 147.855469 184.003906 148.238281 L 210.976562 175.144531 L 209.472656 176.648438 C 209.015625 177.109375 208.519531 177.519531 207.984375 177.882812 C 207.445312 178.242188 206.878906 178.546875 206.28125 178.796875 C 205.683594 179.046875 205.066406 179.234375 204.433594 179.359375 C 203.796875 179.488281 203.15625 179.550781 202.507812 179.550781 C 201.863281 179.550781 201.21875 179.488281 200.585938 179.359375 C 199.949219 179.234375 199.335938 179.046875 198.738281 178.796875 C 198.140625 178.546875 197.574219 178.242188 197.035156 177.882812 C 196.496094 177.519531 196 177.109375 195.546875 176.648438 L 181.878906 162.886719 C 181.574219 162.578125 181.21875 162.339844 180.816406 162.175781 C 180.414062 162.007812 179.996094 161.925781 179.558594 161.925781 C 179.125 161.925781 178.707031 162.011719 178.304688 162.175781 C 177.902344 162.34375 177.546875 162.582031 177.238281 162.886719 C 176.933594 163.195312 176.695312 163.550781 176.527344 163.953125 C 176.363281 164.355469 176.277344 164.773438 176.277344 165.207031 C 176.277344 165.644531 176.359375 166.0625 176.527344 166.464844 C 176.695312 166.867188 176.929688 167.21875 177.238281 167.527344 C 177.804688 168.09375 178.34375 168.683594 178.855469 169.304688 C 179.367188 169.921875 179.84375 170.5625 180.292969 171.230469 C 180.738281 171.894531 181.152344 172.582031 181.53125 173.289062 C 181.910156 173.992188 182.253906 174.71875 182.558594 175.457031 C 182.867188 176.199219 183.140625 176.953125 183.371094 177.71875 C 183.605469 178.484375 183.800781 179.261719 183.957031 180.046875 C 184.113281 180.832031 184.234375 181.625 184.3125 182.421875 C 184.390625 183.222656 184.429688 184.019531 184.429688 184.824219 C 184.429688 185.625 184.390625 186.425781 184.3125 187.222656 C 184.234375 188.019531 184.113281 188.8125 183.957031 189.597656 C 183.800781 190.382812 183.605469 191.160156 183.371094 191.925781 C 183.140625 192.695312 182.867188 193.449219 182.558594 194.1875 C 182.253906 194.929688 181.910156 195.652344 181.53125 196.355469 C 181.152344 197.0625 180.738281 197.75 180.292969 198.414062 C 179.84375 199.082031 179.367188 199.722656 178.855469 200.339844 C 178.34375 200.960938 177.804688 201.550781 177.238281 202.117188 L 181.878906 206.757812 C 183.324219 205.320312 184.613281 203.757812 185.746094 202.0625 C 186.882812 200.371094 187.839844 198.582031 188.617188 196.699219 C 189.398438 194.816406 189.988281 192.875 190.382812 190.878906 C 190.777344 188.878906 190.972656 186.859375 190.96875 184.824219 C 190.976562 183.53125 190.898438 182.246094 190.738281 180.964844 L 190.9375 181.160156 C 192.4375 182.683594 194.167969 183.867188 196.128906 184.707031 C 198.09375 185.550781 200.144531 185.992188 202.28125 186.03125 L 205.550781 189.300781 C 206.421875 190.167969 207.421875 190.847656 208.550781 191.339844 C 209.679688 191.828125 210.859375 192.097656 212.089844 192.144531 C 212.136719 193.375 212.402344 194.554688 212.894531 195.683594 C 213.386719 196.8125 214.066406 197.8125 214.933594 198.683594 L 218.625 202.117188 C 219.414062 202.917969 220.316406 203.550781 221.339844 204.011719 Z M 280.480469 225.359375 L 268.972656 213.886719 C 268.363281 213.261719 267.699219 212.703125 266.976562 212.210938 C 266.257812 211.71875 265.5 211.300781 264.695312 210.957031 C 263.894531 210.613281 263.066406 210.351562 262.214844 210.171875 C 261.363281 209.988281 260.5 209.894531 259.628906 209.878906 C 258.753906 209.867188 257.890625 209.941406 257.03125 210.097656 C 256.175781 210.257812 255.339844 210.496094 254.53125 210.816406 C 253.71875 211.136719 252.949219 211.535156 252.214844 212.007812 C 251.480469 212.480469 250.800781 213.019531 250.175781 213.625 C 248.957031 214.828125 248.023438 216.222656 247.371094 217.804688 C 246.71875 219.386719 246.402344 221.035156 246.414062 222.746094 C 246.410156 224.558594 246.757812 226.300781 247.453125 227.972656 C 248.152344 229.644531 249.144531 231.117188 250.4375 232.390625 L 261.910156 243.832031 C 260.839844 243.980469 259.765625 244.0625 258.6875 244.070312 C 257.605469 244.078125 256.53125 244.015625 255.457031 243.882812 C 254.386719 243.75 253.328125 243.546875 252.285156 243.273438 C 251.238281 243 250.214844 242.660156 249.214844 242.253906 C 248.214844 241.84375 247.246094 241.375 246.308594 240.839844 C 245.367188 240.304688 244.46875 239.710938 243.609375 239.058594 C 242.75 238.402344 241.933594 237.695312 241.167969 236.9375 C 240.402344 236.175781 239.6875 235.371094 239.027344 234.515625 C 238.390625 233.699219 237.8125 232.847656 237.289062 231.957031 C 236.769531 231.066406 236.304688 230.144531 235.902344 229.195312 C 235.5 228.242188 235.164062 227.269531 234.886719 226.273438 C 234.613281 225.28125 234.402344 224.269531 234.261719 223.25 C 234.117188 222.226562 234.042969 221.199219 234.035156 220.164062 C 234.027344 219.132812 234.085938 218.105469 234.210938 217.078125 C 234.335938 216.054688 234.53125 215.042969 234.789062 214.042969 C 235.046875 213.042969 235.371094 212.066406 235.757812 211.105469 C 235.992188 210.492188 236.039062 209.867188 235.898438 209.222656 C 235.753906 208.582031 235.445312 208.03125 234.972656 207.578125 L 231.113281 203.71875 L 232.554688 202.28125 L 240.398438 194.5 L 244.257812 198.355469 C 244.722656 198.828125 245.28125 199.125 245.929688 199.257812 C 246.578125 199.390625 247.207031 199.328125 247.820312 199.078125 C 248.3125 198.894531 248.808594 198.726562 249.3125 198.578125 C 249.8125 198.425781 250.320312 198.292969 250.832031 198.175781 C 251.339844 198.058594 251.855469 197.957031 252.371094 197.871094 C 252.890625 197.789062 253.410156 197.71875 253.929688 197.667969 C 254.453125 197.617188 254.976562 197.585938 255.5 197.566406 C 256.023438 197.550781 256.546875 197.550781 257.070312 197.566406 C 257.59375 197.582031 258.117188 197.613281 258.636719 197.664062 C 259.160156 197.714844 259.679688 197.78125 260.195312 197.863281 C 260.714844 197.949219 261.230469 198.046875 261.738281 198.164062 C 262.25 198.28125 262.757812 198.414062 263.261719 198.5625 C 263.761719 198.710938 264.257812 198.878906 264.75 199.058594 C 265.242188 199.238281 265.726562 199.4375 266.207031 199.648438 C 266.6875 199.863281 267.160156 200.089844 267.621094 200.332031 C 268.085938 200.574219 268.542969 200.832031 268.992188 201.105469 C 269.4375 201.375 269.878906 201.664062 270.308594 201.964844 C 270.738281 202.261719 271.15625 202.578125 271.566406 202.90625 C 271.976562 203.230469 272.375 203.574219 272.761719 203.925781 C 273.148438 204.277344 273.523438 204.644531 273.886719 205.019531 C 274.25 205.398438 274.601562 205.785156 274.941406 206.1875 C 275.28125 206.585938 275.605469 206.996094 275.917969 207.417969 C 276.230469 207.839844 276.527344 208.269531 276.8125 208.707031 C 277.097656 209.148438 277.367188 209.597656 277.625 210.054688 C 277.878906 210.511719 278.121094 210.976562 278.347656 211.449219 C 278.574219 211.921875 278.785156 212.402344 278.976562 212.890625 C 279.171875 213.375 279.351562 213.867188 279.515625 214.367188 C 279.679688 214.863281 279.824219 215.367188 279.957031 215.875 C 280.085938 216.382812 280.203125 216.894531 280.300781 217.410156 C 280.398438 217.921875 280.480469 218.441406 280.542969 218.960938 C 280.609375 219.480469 280.65625 220.003906 280.6875 220.527344 C 280.71875 221.046875 280.734375 221.574219 280.730469 222.097656 C 280.726562 222.621094 280.707031 223.144531 280.671875 223.667969 C 280.636719 224.191406 280.582031 224.710938 280.511719 225.230469 Z M 280.480469 225.359375 " fill-opacity="1" fill-rule="nonzero"/></g></svg>