<svg xmlns="http://www.w3.org/2000/svg" xmlns:xlink="http://www.w3.org/1999/xlink" width="500" zoomAndPan="magnify" viewBox="0 0 375 374.999991" height="500" preserveAspectRatio="xMidYMid meet" version="1.0"><defs><clipPath id="4b22d15b94"><path d="M 112.5 135 L 262.5 135 L 262.5 240 L 112.5 240 Z M 112.5 135 " clip-rule="nonzero"/></clipPath><clipPath id="01a6d3d7cb"><path d="M 114 112.5 L 262.5 112.5 L 262.5 261 L 114 261 Z M 114 112.5 " clip-rule="nonzero"/></clipPath><clipPath id="f6411b1809"><path d="M 114 112.5 L 262.5 112.5 L 262.5 261 L 114 261 Z M 114 112.5 " clip-rule="nonzero"/></clipPath></defs><g clip-path="url(#4b22d15b94)"><path fill="#ffffff" d="M 247.339844 163.910156 C 244.378906 165.613281 237.484375 158.726562 237.484375 158.726562 C 237.484375 158.726562 235.007812 149.316406 237.972656 147.621094 L 252.738281 139.152344 C 246.386719 135.007812 237.996094 134.480469 230.976562 138.503906 C 224.132812 142.429688 220.371094 149.640625 220.53125 156.992188 C 196.625 173.847656 171.195312 188.425781 144.566406 200.535156 C 138.285156 196.683594 130.140625 196.296875 123.300781 200.21875 C 116.269531 204.246094 112.507812 211.746094 112.894531 219.304688 L 127.65625 210.839844 C 130.625 209.144531 137.515625 216.03125 137.515625 216.03125 C 137.515625 216.03125 139.996094 225.441406 137.03125 227.136719 L 122.269531 235.597656 C 128.613281 239.742188 137 240.28125 144.027344 236.25 C 150.714844 232.421875 154.441406 225.445312 154.457031 218.269531 C 178.5 201.300781 204.085938 186.644531 230.882812 174.46875 C 237.105469 178.066406 245.015625 178.367188 251.703125 174.542969 C 258.726562 170.515625 262.492188 163.011719 262.105469 155.449219 Z M 247.339844 163.910156 " fill-opacity="1" fill-rule="nonzero"/></g><g clip-path="url(#01a6d3d7cb)"><path fill="#040606" d="M 234.847656 116.191406 L 223.3125 127.726562 C 220.703125 130.335938 220.703125 134.570312 223.3125 137.191406 L 237.808594 151.6875 C 240.417969 154.296875 244.664062 154.296875 247.273438 151.6875 L 258.808594 140.152344 C 258.492188 153.078125 247.773438 163.300781 234.847656 162.988281 C 232.894531 162.949219 230.96875 162.660156 229.078125 162.136719 C 225.59375 161.152344 221.84375 162.136719 219.289062 164.691406 L 159.042969 224.9375 C 156.683594 227.308594 155.648438 230.691406 156.289062 233.96875 C 158.375 244.480469 151.53125 254.679688 141.03125 256.765625 C 130.519531 258.835938 120.320312 252.003906 118.25 241.492188 C 116.164062 230.980469 122.996094 220.78125 133.507812 218.710938 C 135.984375 218.210938 138.539062 218.210938 141.03125 218.710938 C 144.308594 219.351562 147.691406 218.332031 150.0625 215.957031 L 210.308594 155.710938 C 212.863281 153.15625 213.847656 149.40625 212.878906 145.921875 C 209.378906 133.46875 216.640625 120.542969 229.078125 117.054688 C 230.96875 116.53125 232.894531 116.242188 234.847656 116.191406 Z M 236.261719 112.847656 C 221.488281 112.375 209.128906 123.964844 208.65625 138.738281 C 208.578125 141.464844 208.90625 144.191406 209.640625 146.824219 C 210.296875 149.144531 209.640625 151.636719 207.9375 153.339844 L 147.691406 213.585938 C 146.117188 215.160156 143.863281 215.851562 141.671875 215.421875 C 129.351562 212.980469 117.382812 220.992188 114.945312 233.328125 C 112.507812 245.648438 120.53125 257.617188 132.851562 260.054688 C 145.1875 262.492188 157.15625 254.46875 159.578125 242.148438 C 160.15625 239.238281 160.15625 236.238281 159.578125 233.328125 C 159.148438 231.136719 159.839844 228.882812 161.414062 227.308594 L 221.660156 167.0625 C 223.363281 165.359375 225.855469 164.703125 228.175781 165.359375 C 242.410156 169.359375 257.183594 161.046875 261.167969 146.824219 C 262.152344 143.324219 262.414062 139.667969 261.941406 136.0625 C 261.808594 135.160156 260.972656 134.515625 260.066406 134.632812 C 259.699219 134.6875 259.359375 134.855469 259.097656 135.121094 L 244.902344 149.316406 C 243.601562 150.613281 241.492188 150.613281 240.183594 149.316406 L 225.683594 134.816406 C 224.386719 133.507812 224.386719 131.398438 225.683594 130.097656 L 239.894531 115.902344 C 240.535156 115.246094 240.535156 114.1875 239.894531 113.542969 C 239.632812 113.28125 239.289062 113.109375 238.921875 113.070312 C 238.046875 112.941406 237.152344 112.875 236.261719 112.847656 " fill-opacity="1" fill-rule="nonzero"/></g><path fill="#040606" d="M 139.667969 227.0625 L 147.714844 234.480469 L 145.316406 245.148438 L 134.871094 248.414062 L 126.820312 240.996094 L 129.222656 230.3125 Z M 140.519531 223.273438 L 126.375 227.691406 L 123.125 242.148438 L 134.019531 252.1875 L 148.164062 247.773438 L 151.414062 233.328125 L 140.519531 223.273438 " fill-opacity="1" fill-rule="nonzero"/><g clip-path="url(#f6411b1809)"><path fill="#040606" d="M 234.847656 116.191406 L 223.3125 127.726562 C 220.703125 130.335938 220.703125 134.570312 223.3125 137.191406 L 237.808594 151.6875 C 240.417969 154.296875 244.664062 154.296875 247.273438 151.6875 L 258.808594 140.152344 C 258.492188 153.078125 247.773438 163.300781 234.847656 162.988281 C 232.894531 162.949219 230.96875 162.660156 229.078125 162.136719 C 225.59375 161.152344 221.84375 162.136719 219.289062 164.691406 L 159.042969 224.9375 C 156.683594 227.308594 155.648438 230.691406 156.289062 233.96875 C 158.375 244.480469 151.53125 254.679688 141.03125 256.765625 C 130.519531 258.835938 120.320312 252.003906 118.25 241.492188 C 116.164062 230.980469 122.996094 220.78125 133.507812 218.710938 C 135.984375 218.210938 138.539062 218.210938 141.03125 218.710938 C 144.308594 219.351562 147.691406 218.332031 150.0625 215.957031 L 210.308594 155.710938 C 212.863281 153.15625 213.847656 149.40625 212.878906 145.921875 C 209.378906 133.46875 216.640625 120.542969 229.078125 117.054688 C 230.96875 116.53125 232.894531 116.242188 234.847656 116.191406 Z M 236.261719 112.847656 C 221.488281 112.375 209.128906 123.964844 208.65625 138.738281 C 208.578125 141.464844 208.90625 144.191406 209.640625 146.824219 C 210.296875 149.144531 209.640625 151.636719 207.9375 153.339844 L 147.691406 213.585938 C 146.117188 215.160156 143.863281 215.851562 141.671875 215.421875 C 129.351562 212.980469 117.382812 220.992188 114.945312 233.328125 C 112.507812 245.648438 120.53125 257.617188 132.851562 260.054688 C 145.1875 262.492188 157.15625 254.46875 159.578125 242.148438 C 160.15625 239.238281 160.15625 236.238281 159.578125 233.328125 C 159.148438 231.136719 159.839844 228.882812 161.414062 227.308594 L 221.660156 167.0625 C 223.363281 165.359375 225.855469 164.703125 228.175781 165.359375 C 242.410156 169.359375 257.183594 161.046875 261.167969 146.824219 C 262.152344 143.324219 262.414062 139.667969 261.941406 136.0625 C 261.808594 135.160156 260.972656 134.515625 260.066406 134.632812 C 259.699219 134.6875 259.359375 134.855469 259.097656 135.121094 L 244.902344 149.316406 C 243.601562 150.613281 241.492188 150.613281 240.183594 149.316406 L 225.683594 134.816406 C 224.386719 133.507812 224.386719 131.398438 225.683594 130.097656 L 239.894531 115.902344 C 240.535156 115.246094 240.535156 114.1875 239.894531 113.542969 C 239.632812 113.28125 239.289062 113.109375 238.921875 113.070312 C 238.046875 112.941406 237.152344 112.875 236.261719 112.847656 " fill-opacity="1" fill-rule="nonzero"/></g><path fill="#040606" d="M 139.667969 227.0625 L 147.714844 234.480469 L 145.316406 245.148438 L 134.871094 248.414062 L 126.820312 240.996094 L 129.222656 230.3125 Z M 140.519531 223.273438 L 126.375 227.691406 L 123.125 242.148438 L 134.019531 252.1875 L 148.164062 247.773438 L 151.414062 233.328125 L 140.519531 223.273438 " fill-opacity="1" fill-rule="nonzero"/></svg>