<svg xmlns="http://www.w3.org/2000/svg" xmlns:xlink="http://www.w3.org/1999/xlink" width="500" zoomAndPan="magnify" viewBox="0 0 375 374.999991" height="500" preserveAspectRatio="xMidYMid meet" version="1.0"><defs><clipPath id="7c650f4ef7"><path d="M 121.445312 144.070312 L 253.445312 144.070312 L 253.445312 156 L 121.445312 156 Z M 121.445312 144.070312 " clip-rule="nonzero"/></clipPath><clipPath id="1ac5fe7fa1"><path d="M 121.445312 181 L 253.445312 181 L 253.445312 194 L 121.445312 194 Z M 121.445312 181 " clip-rule="nonzero"/></clipPath><clipPath id="d46767cf64"><path d="M 121.445312 219 L 253.445312 219 L 253.445312 231.070312 L 121.445312 231.070312 Z M 121.445312 219 " clip-rule="nonzero"/></clipPath><clipPath id="11b0e155be"><path d="M 121.445312 144.070312 L 253.445312 144.070312 L 253.445312 156 L 121.445312 156 Z M 121.445312 144.070312 " clip-rule="nonzero"/></clipPath><clipPath id="27819a9a98"><path d="M 121.445312 181 L 253.445312 181 L 253.445312 194 L 121.445312 194 Z M 121.445312 181 " clip-rule="nonzero"/></clipPath><clipPath id="04704724cb"><path d="M 121.445312 219 L 253.445312 219 L 253.445312 231.070312 L 121.445312 231.070312 Z M 121.445312 219 " clip-rule="nonzero"/></clipPath></defs><g clip-path="url(#7c650f4ef7)"><path fill="#000000" d="M 253.441406 149.765625 C 253.441406 152.898438 250.910156 155.4375 247.785156 155.4375 L 127.105469 155.4375 C 123.980469 155.4375 121.449219 152.898438 121.449219 149.765625 C 121.449219 146.632812 123.980469 144.09375 127.105469 144.09375 L 247.785156 144.09375 C 250.910156 144.09375 253.441406 146.632812 253.441406 149.765625 Z M 253.441406 149.765625 " fill-opacity="1" fill-rule="evenodd"/></g><g clip-path="url(#1ac5fe7fa1)"><path fill="#000000" d="M 253.441406 187.570312 C 253.441406 190.703125 250.910156 193.242188 247.785156 193.242188 L 127.105469 193.242188 C 123.980469 193.242188 121.449219 190.703125 121.449219 187.570312 C 121.449219 184.4375 123.980469 181.898438 127.105469 181.898438 L 247.785156 181.898438 C 250.910156 181.898438 253.441406 184.4375 253.441406 187.570312 Z M 253.441406 187.570312 " fill-opacity="1" fill-rule="evenodd"/></g><g clip-path="url(#d46767cf64)"><path fill="#000000" d="M 253.441406 225.375 C 253.441406 228.507812 250.910156 231.046875 247.785156 231.046875 L 127.105469 231.046875 C 123.980469 231.046875 121.449219 228.507812 121.449219 225.375 C 121.449219 222.242188 123.980469 219.703125 127.105469 219.703125 L 247.785156 219.703125 C 250.910156 219.703125 253.441406 222.242188 253.441406 225.375 Z M 253.441406 225.375 " fill-opacity="1" fill-rule="evenodd"/></g><g clip-path="url(#11b0e155be)"><path fill="#000000" d="M 253.441406 149.765625 C 253.441406 152.898438 250.910156 155.4375 247.785156 155.4375 L 127.105469 155.4375 C 123.980469 155.4375 121.449219 152.898438 121.449219 149.765625 C 121.449219 146.632812 123.980469 144.09375 127.105469 144.09375 L 247.785156 144.09375 C 250.910156 144.09375 253.441406 146.632812 253.441406 149.765625 Z M 253.441406 149.765625 " fill-opacity="1" fill-rule="evenodd"/></g><g clip-path="url(#27819a9a98)"><path fill="#000000" d="M 253.441406 187.570312 C 253.441406 190.703125 250.910156 193.242188 247.785156 193.242188 L 127.105469 193.242188 C 123.980469 193.242188 121.449219 190.703125 121.449219 187.570312 C 121.449219 184.4375 123.980469 181.898438 127.105469 181.898438 L 247.785156 181.898438 C 250.910156 181.898438 253.441406 184.4375 253.441406 187.570312 Z M 253.441406 187.570312 " fill-opacity="1" fill-rule="evenodd"/></g><g clip-path="url(#04704724cb)"><path fill="#000000" d="M 253.441406 225.375 C 253.441406 228.507812 250.910156 231.046875 247.785156 231.046875 L 127.105469 231.046875 C 123.980469 231.046875 121.449219 228.507812 121.449219 225.375 C 121.449219 222.242188 123.980469 219.703125 127.105469 219.703125 L 247.785156 219.703125 C 250.910156 219.703125 253.441406 222.242188 253.441406 225.375 Z M 253.441406 225.375 " fill-opacity="1" fill-rule="evenodd"/></g></svg>