<svg xmlns="http://www.w3.org/2000/svg" xmlns:xlink="http://www.w3.org/1999/xlink" width="1920" zoomAndPan="magnify" viewBox="0 0 1440 809.999993" height="1080" preserveAspectRatio="xMidYMid meet" version="1.0"><defs><g/></defs><rect x="-144" width="1728" fill="#ffffff" y="-80.999999" height="971.999992" fill-opacity="1"/><rect x="-144" width="1728" fill="#f5f5f5" y="-80.999999" height="971.999992" fill-opacity="1"/><g fill="#000000" fill-opacity="0.4"><g transform="translate(297.611843, 672.900526)"><g><path d="M 1.28125 0 L 1.28125 -0.578125 L 2.4375 -1.046875 C 3.21875 -1.316406 3.734375 -1.679688 3.984375 -2.140625 C 4.234375 -2.609375 4.359375 -3.210938 4.359375 -3.953125 L 4.359375 -34.328125 C 4.359375 -35.109375 4.234375 -35.726562 3.984375 -36.1875 C 3.734375 -36.65625 3.21875 -37.023438 2.4375 -37.296875 L 1.28125 -37.765625 L 1.28125 -38.34375 L 16.03125 -38.34375 L 16.03125 -37.765625 L 15.046875 -37.359375 C 14.304688 -37.085938 13.800781 -36.726562 13.53125 -36.28125 C 13.257812 -35.832031 13.125 -35.222656 13.125 -34.453125 L 13.125 -20.328125 L 27.015625 -20.328125 L 27.015625 -34.453125 C 27.015625 -35.222656 26.890625 -35.832031 26.640625 -36.28125 C 26.390625 -36.726562 25.875 -37.085938 25.09375 -37.359375 L 24.046875 -37.765625 L 24.046875 -38.34375 L 38.859375 -38.34375 L 38.859375 -37.765625 L 37.703125 -37.296875 C 36.960938 -37.023438 36.457031 -36.65625 36.1875 -36.1875 C 35.914062 -35.726562 35.78125 -35.109375 35.78125 -34.328125 L 35.78125 -3.953125 C 35.78125 -3.210938 35.914062 -2.609375 36.1875 -2.140625 C 36.457031 -1.679688 36.960938 -1.316406 37.703125 -1.046875 L 38.859375 -0.578125 L 38.859375 0 L 24.046875 0 L 24.046875 -0.578125 L 25.09375 -0.921875 C 25.875 -1.234375 26.390625 -1.613281 26.640625 -2.0625 C 26.890625 -2.507812 27.015625 -3.117188 27.015625 -3.890625 L 27.015625 -19.171875 L 13.125 -19.171875 L 13.125 -3.890625 C 13.125 -2.460938 13.765625 -1.472656 15.046875 -0.921875 L 16.03125 -0.578125 L 16.03125 0 Z M 1.28125 0 "/></g></g></g><g fill="#000000" fill-opacity="0.4"><g transform="translate(337.756443, 672.900526)"><g><path d="M 15.859375 0.875 C 12.910156 0.875 10.351562 0.265625 8.1875 -0.953125 C 6.019531 -2.171875 4.34375 -3.90625 3.15625 -6.15625 C 1.976562 -8.40625 1.390625 -11.039062 1.390625 -14.0625 C 1.390625 -17.082031 2.019531 -19.695312 3.28125 -21.90625 C 4.539062 -24.113281 6.265625 -25.816406 8.453125 -27.015625 C 10.640625 -28.210938 13.109375 -28.8125 15.859375 -28.8125 C 18.609375 -28.8125 21.066406 -28.21875 23.234375 -27.03125 C 25.398438 -25.851562 27.113281 -24.160156 28.375 -21.953125 C 29.632812 -19.742188 30.265625 -17.113281 30.265625 -14.0625 C 30.265625 -11 29.671875 -8.351562 28.484375 -6.125 C 27.304688 -3.894531 25.644531 -2.171875 23.5 -0.953125 C 21.351562 0.265625 18.804688 0.875 15.859375 0.875 Z M 15.859375 -0.296875 C 17.210938 -0.296875 18.296875 -0.679688 19.109375 -1.453125 C 19.921875 -2.222656 20.507812 -3.597656 20.875 -5.578125 C 21.25 -7.554688 21.4375 -10.34375 21.4375 -13.9375 C 21.4375 -17.582031 21.25 -20.390625 20.875 -22.359375 C 20.507812 -24.335938 19.921875 -25.710938 19.109375 -26.484375 C 18.296875 -27.265625 17.210938 -27.65625 15.859375 -27.65625 C 14.503906 -27.65625 13.410156 -27.265625 12.578125 -26.484375 C 11.742188 -25.710938 11.140625 -24.335938 10.765625 -22.359375 C 10.398438 -20.390625 10.21875 -17.582031 10.21875 -13.9375 C 10.21875 -10.34375 10.398438 -7.554688 10.765625 -5.578125 C 11.140625 -3.597656 11.742188 -2.222656 12.578125 -1.453125 C 13.410156 -0.679688 14.503906 -0.296875 15.859375 -0.296875 Z M 15.859375 -0.296875 "/></g></g></g><g fill="#000000" fill-opacity="0.4"><g transform="translate(369.418975, 672.900526)"><g><path d="M 1.15625 0 L 1.15625 -0.578125 L 1.96875 -0.8125 C 2.707031 -1.007812 3.222656 -1.335938 3.515625 -1.796875 C 3.804688 -2.265625 3.972656 -2.882812 4.015625 -3.65625 L 4.015625 -21.84375 C 4.015625 -22.695312 3.875 -23.328125 3.59375 -23.734375 C 3.320312 -24.140625 2.800781 -24.421875 2.03125 -24.578125 L 1.15625 -24.8125 L 1.15625 -25.390625 L 11.09375 -28.75 L 11.671875 -28.171875 L 12.140625 -24.21875 C 13.421875 -25.5 14.882812 -26.582031 16.53125 -27.46875 C 18.175781 -28.363281 19.890625 -28.8125 21.671875 -28.8125 C 23.523438 -28.8125 25.015625 -28.429688 26.140625 -27.671875 C 27.265625 -26.921875 28.117188 -25.753906 28.703125 -24.171875 C 30.210938 -25.597656 31.847656 -26.726562 33.609375 -27.5625 C 35.367188 -28.394531 37.082031 -28.8125 38.75 -28.8125 C 41.5 -28.8125 43.519531 -28.148438 44.8125 -26.828125 C 46.113281 -25.515625 46.765625 -23.445312 46.765625 -20.625 L 46.765625 -3.609375 C 46.765625 -2.097656 47.460938 -1.144531 48.859375 -0.75 L 49.5 -0.578125 L 49.5 0 L 36.078125 0 L 36.078125 -0.578125 L 36.65625 -0.75 C 37.394531 -0.988281 37.90625 -1.335938 38.1875 -1.796875 C 38.476562 -2.265625 38.625 -2.882812 38.625 -3.65625 L 38.625 -21.4375 C 38.625 -23.0625 38.332031 -24.171875 37.75 -24.765625 C 37.175781 -25.367188 36.25 -25.671875 34.96875 -25.671875 C 33.96875 -25.671875 32.988281 -25.445312 32.03125 -25 C 31.082031 -24.5625 30.085938 -23.894531 29.046875 -23 C 29.242188 -22.382812 29.367188 -21.707031 29.421875 -20.96875 C 29.484375 -20.238281 29.515625 -19.460938 29.515625 -18.640625 L 29.515625 -3.609375 C 29.546875 -2.097656 30.242188 -1.144531 31.609375 -0.75 L 32.125 -0.578125 L 32.125 0 L 18.640625 0 L 18.640625 -0.578125 L 19.46875 -0.8125 C 20.195312 -1.039062 20.707031 -1.378906 21 -1.828125 C 21.289062 -2.273438 21.4375 -2.882812 21.4375 -3.65625 L 21.4375 -21.375 C 21.4375 -22.925781 21.15625 -24.03125 20.59375 -24.6875 C 20.03125 -25.34375 19.070312 -25.671875 17.71875 -25.671875 C 16.820312 -25.671875 15.925781 -25.445312 15.03125 -25 C 14.144531 -24.5625 13.21875 -23.914062 12.25 -23.0625 L 12.25 -3.609375 C 12.25 -2.097656 12.929688 -1.144531 14.296875 -0.75 L 14.8125 -0.578125 L 14.8125 0 Z M 1.15625 0 "/></g></g></g><g fill="#000000" fill-opacity="0.4"><g transform="translate(420.020927, 672.900526)"><g><path d="M 15.75 -28.8125 C 18.257812 -28.8125 20.40625 -28.296875 22.1875 -27.265625 C 23.96875 -26.242188 25.332031 -24.851562 26.28125 -23.09375 C 27.226562 -21.332031 27.703125 -19.328125 27.703125 -17.078125 C 27.703125 -16.648438 27.679688 -16.210938 27.640625 -15.765625 C 27.609375 -15.328125 27.535156 -14.929688 27.421875 -14.578125 L 10.109375 -14.578125 C 10.148438 -10.398438 10.894531 -7.390625 12.34375 -5.546875 C 13.800781 -3.703125 15.960938 -2.78125 18.828125 -2.78125 C 20.765625 -2.78125 22.332031 -3.085938 23.53125 -3.703125 C 24.726562 -4.328125 25.847656 -5.242188 26.890625 -6.453125 L 27.484375 -5.921875 C 26.273438 -3.796875 24.671875 -2.128906 22.671875 -0.921875 C 20.679688 0.273438 18.296875 0.875 15.515625 0.875 C 12.765625 0.875 10.320312 0.285156 8.1875 -0.890625 C 6.0625 -2.078125 4.394531 -3.773438 3.1875 -5.984375 C 1.988281 -8.191406 1.390625 -10.828125 1.390625 -13.890625 C 1.390625 -17.054688 2.085938 -19.753906 3.484375 -21.984375 C 4.878906 -24.210938 6.671875 -25.90625 8.859375 -27.0625 C 11.046875 -28.226562 13.34375 -28.8125 15.75 -28.8125 Z M 15.5625 -27.65625 C 14.445312 -27.65625 13.488281 -27.316406 12.6875 -26.640625 C 11.894531 -25.960938 11.273438 -24.757812 10.828125 -23.03125 C 10.390625 -21.3125 10.148438 -18.882812 10.109375 -15.75 L 20.046875 -15.75 C 20.429688 -19.96875 20.273438 -23.003906 19.578125 -24.859375 C 18.878906 -26.722656 17.539062 -27.65625 15.5625 -27.65625 Z M 15.5625 -27.65625 "/></g></g></g><g fill="#000000" fill-opacity="0.4"><g transform="translate(449.475792, 672.900526)"><g/></g></g><g fill="#000000" fill-opacity="0.4"><g transform="translate(462.140792, 672.900526)"><g><path d="M 1.15625 0 L 1.15625 -0.578125 L 2.328125 -0.984375 C 3.640625 -1.410156 4.296875 -2.515625 4.296875 -4.296875 L 4.296875 -34.046875 C 4.296875 -34.816406 4.207031 -35.429688 4.03125 -35.890625 C 3.863281 -36.359375 3.410156 -36.75 2.671875 -37.0625 L 1.15625 -37.765625 L 1.15625 -38.34375 L 12.375 -38.34375 L 23.125 -10.21875 L 33.234375 -38.34375 L 44.671875 -38.34375 L 44.671875 -37.765625 L 43.75 -37.40625 C 43.007812 -37.132812 42.503906 -36.753906 42.234375 -36.265625 C 41.960938 -35.785156 41.828125 -35.160156 41.828125 -34.390625 L 41.828125 -4.015625 C 41.828125 -3.234375 41.921875 -2.628906 42.109375 -2.203125 C 42.304688 -1.773438 42.773438 -1.410156 43.515625 -1.109375 L 44.671875 -0.578125 L 44.671875 0 L 30.203125 0 L 30.203125 -0.578125 L 31.421875 -1.109375 C 32.160156 -1.410156 32.625 -1.773438 32.8125 -2.203125 C 33.007812 -2.628906 33.109375 -3.234375 33.109375 -4.015625 L 33.109375 -17.078125 L 33.234375 -33.6875 L 21.09375 0 L 18.1875 0 L 5.515625 -33.28125 L 5.6875 -18.828125 L 5.6875 -4.1875 C 5.6875 -3.332031 5.8125 -2.644531 6.0625 -2.125 C 6.320312 -1.601562 6.816406 -1.222656 7.546875 -0.984375 L 8.828125 -0.578125 L 8.828125 0 Z M 1.15625 0 "/></g></g></g><g fill="#000000" fill-opacity="0.4"><g transform="translate(508.095031, 672.900526)"><g><path d="M 9.640625 0.875 C 7.398438 0.875 5.515625 0.234375 3.984375 -1.046875 C 2.453125 -2.328125 1.6875 -4.164062 1.6875 -6.5625 C 1.6875 -8.382812 2.613281 -10.0625 4.46875 -11.59375 C 6.332031 -13.125 9.257812 -14.273438 13.25 -15.046875 C 13.863281 -15.160156 14.554688 -15.285156 15.328125 -15.421875 C 16.109375 -15.554688 16.925781 -15.703125 17.78125 -15.859375 L 17.78125 -20.453125 C 17.78125 -23.085938 17.457031 -24.9375 16.8125 -26 C 16.175781 -27.0625 15.179688 -27.59375 13.828125 -27.59375 C 12.898438 -27.59375 12.164062 -27.289062 11.625 -26.6875 C 11.082031 -26.09375 10.734375 -25.0625 10.578125 -23.59375 L 10.453125 -22.953125 C 10.378906 -21.285156 9.972656 -20.0625 9.234375 -19.28125 C 8.503906 -18.507812 7.59375 -18.125 6.5 -18.125 C 5.5 -18.125 4.664062 -18.429688 4 -19.046875 C 3.34375 -19.671875 3.015625 -20.503906 3.015625 -21.546875 C 3.015625 -23.140625 3.566406 -24.476562 4.671875 -25.5625 C 5.773438 -26.644531 7.238281 -27.457031 9.0625 -28 C 10.882812 -28.539062 12.859375 -28.8125 14.984375 -28.8125 C 18.429688 -28.8125 21.09375 -27.96875 22.96875 -26.28125 C 24.851562 -24.601562 25.796875 -21.863281 25.796875 -18.0625 L 25.796875 -5.234375 C 25.796875 -3.484375 26.609375 -2.609375 28.234375 -2.609375 L 29.515625 -2.609375 L 30.03125 -2.15625 C 29.300781 -1.21875 28.5 -0.5 27.625 0 C 26.75 0.5 25.519531 0.75 23.9375 0.75 C 22.226562 0.75 20.878906 0.351562 19.890625 -0.4375 C 18.910156 -1.226562 18.265625 -2.285156 17.953125 -3.609375 C 16.785156 -2.367188 15.59375 -1.3125 14.375 -0.4375 C 13.15625 0.4375 11.578125 0.875 9.640625 0.875 Z M 13.1875 -2.671875 C 13.957031 -2.671875 14.679688 -2.851562 15.359375 -3.21875 C 16.035156 -3.59375 16.84375 -4.164062 17.78125 -4.9375 L 17.78125 -14.703125 C 17.394531 -14.617188 17.003906 -14.535156 16.609375 -14.453125 C 16.222656 -14.378906 15.78125 -14.304688 15.28125 -14.234375 C 13.5 -13.765625 12.070312 -12.976562 11 -11.875 C 9.9375 -10.769531 9.40625 -9.289062 9.40625 -7.4375 C 9.40625 -5.84375 9.773438 -4.648438 10.515625 -3.859375 C 11.253906 -3.066406 12.144531 -2.671875 13.1875 -2.671875 Z M 13.1875 -2.671875 "/></g></g></g><g fill="#000000" fill-opacity="0.4"><g transform="translate(538.188957, 672.900526)"><g><path d="M 8.140625 -31.828125 C 6.816406 -31.828125 5.695312 -32.242188 4.78125 -33.078125 C 3.875 -33.910156 3.421875 -34.96875 3.421875 -36.25 C 3.421875 -37.5625 3.875 -38.625 4.78125 -39.4375 C 5.695312 -40.257812 6.816406 -40.671875 8.140625 -40.671875 C 9.453125 -40.671875 10.550781 -40.257812 11.4375 -39.4375 C 12.332031 -38.625 12.78125 -37.5625 12.78125 -36.25 C 12.78125 -34.96875 12.332031 -33.910156 11.4375 -33.078125 C 10.550781 -32.242188 9.453125 -31.828125 8.140625 -31.828125 Z M 1.28125 0 L 1.28125 -0.578125 L 2.09375 -0.8125 C 2.863281 -1.039062 3.394531 -1.390625 3.6875 -1.859375 C 3.976562 -2.328125 4.125 -2.945312 4.125 -3.71875 L 4.125 -21.90625 C 4.125 -22.71875 3.976562 -23.328125 3.6875 -23.734375 C 3.394531 -24.140625 2.863281 -24.421875 2.09375 -24.578125 L 1.28125 -24.75 L 1.28125 -25.328125 L 11.90625 -28.75 L 12.484375 -28.171875 L 12.3125 -19.921875 L 12.3125 -3.65625 C 12.3125 -2.882812 12.457031 -2.265625 12.75 -1.796875 C 13.039062 -1.335938 13.554688 -0.988281 14.296875 -0.75 L 14.875 -0.578125 L 14.875 0 Z M 1.28125 0 "/></g></g></g><g fill="#000000" fill-opacity="0.4"><g transform="translate(554.455958, 672.900526)"><g><path d="M 1.15625 0 L 1.15625 -0.578125 L 1.96875 -0.8125 C 3.332031 -1.195312 4.015625 -2.144531 4.015625 -3.65625 L 4.015625 -21.84375 C 4.015625 -22.695312 3.875 -23.328125 3.59375 -23.734375 C 3.320312 -24.140625 2.800781 -24.421875 2.03125 -24.578125 L 1.15625 -24.8125 L 1.15625 -25.390625 L 11.09375 -28.75 L 11.671875 -28.171875 L 12.140625 -24.6875 C 13.492188 -25.882812 15.019531 -26.867188 16.71875 -27.640625 C 18.425781 -28.421875 20.113281 -28.8125 21.78125 -28.8125 C 24.34375 -28.8125 26.3125 -28.113281 27.6875 -26.71875 C 29.0625 -25.320312 29.75 -23.191406 29.75 -20.328125 L 29.75 -3.609375 C 29.75 -2.097656 30.484375 -1.144531 31.953125 -0.75 L 32.46875 -0.578125 L 32.46875 0 L 18.765625 0 L 18.765625 -0.578125 L 19.515625 -0.8125 C 20.867188 -1.238281 21.546875 -2.1875 21.546875 -3.65625 L 21.546875 -22.1875 C 21.546875 -24.664062 20.304688 -25.90625 17.828125 -25.90625 C 16.128906 -25.90625 14.269531 -25.054688 12.25 -23.359375 L 12.25 -3.609375 C 12.25 -2.097656 12.929688 -1.144531 14.296875 -0.75 L 14.8125 -0.578125 L 14.8125 0 Z M 1.15625 0 "/></g></g></g><g fill="#000000" fill-opacity="0.4"><g transform="translate(588.035672, 672.900526)"><g><path d="M 12.203125 0.875 C 9.722656 0.875 7.796875 0.253906 6.421875 -0.984375 C 5.046875 -2.222656 4.359375 -4.195312 4.359375 -6.90625 L 4.359375 -26.78125 L 0.34375 -26.78125 L 0.34375 -27.359375 L 1.75 -27.59375 C 2.945312 -27.863281 3.976562 -28.25 4.84375 -28.75 C 5.71875 -29.257812 6.582031 -29.941406 7.4375 -30.796875 L 12.203125 -36.078125 L 12.78125 -36.078125 L 12.609375 -27.9375 L 19.109375 -27.9375 L 19.109375 -26.78125 L 12.546875 -26.78125 L 12.546875 -5.875 C 12.546875 -4.507812 12.84375 -3.476562 13.4375 -2.78125 C 14.039062 -2.09375 14.8125 -1.75 15.75 -1.75 C 16.5625 -1.75 17.273438 -1.953125 17.890625 -2.359375 C 18.515625 -2.765625 19.132812 -3.316406 19.75 -4.015625 L 20.328125 -3.421875 C 19.554688 -2.109375 18.492188 -1.0625 17.140625 -0.28125 C 15.785156 0.488281 14.140625 0.875 12.203125 0.875 Z M 12.203125 0.875 "/></g></g></g><g fill="#000000" fill-opacity="0.4"><g transform="translate(609.00847, 672.900526)"><g><path d="M 15.75 -28.8125 C 18.257812 -28.8125 20.40625 -28.296875 22.1875 -27.265625 C 23.96875 -26.242188 25.332031 -24.851562 26.28125 -23.09375 C 27.226562 -21.332031 27.703125 -19.328125 27.703125 -17.078125 C 27.703125 -16.648438 27.679688 -16.210938 27.640625 -15.765625 C 27.609375 -15.328125 27.535156 -14.929688 27.421875 -14.578125 L 10.109375 -14.578125 C 10.148438 -10.398438 10.894531 -7.390625 12.34375 -5.546875 C 13.800781 -3.703125 15.960938 -2.78125 18.828125 -2.78125 C 20.765625 -2.78125 22.332031 -3.085938 23.53125 -3.703125 C 24.726562 -4.328125 25.847656 -5.242188 26.890625 -6.453125 L 27.484375 -5.921875 C 26.273438 -3.796875 24.671875 -2.128906 22.671875 -0.921875 C 20.679688 0.273438 18.296875 0.875 15.515625 0.875 C 12.765625 0.875 10.320312 0.285156 8.1875 -0.890625 C 6.0625 -2.078125 4.394531 -3.773438 3.1875 -5.984375 C 1.988281 -8.191406 1.390625 -10.828125 1.390625 -13.890625 C 1.390625 -17.054688 2.085938 -19.753906 3.484375 -21.984375 C 4.878906 -24.210938 6.671875 -25.90625 8.859375 -27.0625 C 11.046875 -28.226562 13.34375 -28.8125 15.75 -28.8125 Z M 15.5625 -27.65625 C 14.445312 -27.65625 13.488281 -27.316406 12.6875 -26.640625 C 11.894531 -25.960938 11.273438 -24.757812 10.828125 -23.03125 C 10.390625 -21.3125 10.148438 -18.882812 10.109375 -15.75 L 20.046875 -15.75 C 20.429688 -19.96875 20.273438 -23.003906 19.578125 -24.859375 C 18.878906 -26.722656 17.539062 -27.65625 15.5625 -27.65625 Z M 15.5625 -27.65625 "/></g></g></g><g fill="#000000" fill-opacity="0.4"><g transform="translate(638.463335, 672.900526)"><g><path d="M 1.15625 0 L 1.15625 -0.578125 L 1.96875 -0.8125 C 3.332031 -1.195312 4.015625 -2.144531 4.015625 -3.65625 L 4.015625 -21.84375 C 4.015625 -22.695312 3.875 -23.328125 3.59375 -23.734375 C 3.320312 -24.140625 2.800781 -24.421875 2.03125 -24.578125 L 1.15625 -24.8125 L 1.15625 -25.390625 L 11.09375 -28.75 L 11.671875 -28.171875 L 12.140625 -24.6875 C 13.492188 -25.882812 15.019531 -26.867188 16.71875 -27.640625 C 18.425781 -28.421875 20.113281 -28.8125 21.78125 -28.8125 C 24.34375 -28.8125 26.3125 -28.113281 27.6875 -26.71875 C 29.0625 -25.320312 29.75 -23.191406 29.75 -20.328125 L 29.75 -3.609375 C 29.75 -2.097656 30.484375 -1.144531 31.953125 -0.75 L 32.46875 -0.578125 L 32.46875 0 L 18.765625 0 L 18.765625 -0.578125 L 19.515625 -0.8125 C 20.867188 -1.238281 21.546875 -2.1875 21.546875 -3.65625 L 21.546875 -22.1875 C 21.546875 -24.664062 20.304688 -25.90625 17.828125 -25.90625 C 16.128906 -25.90625 14.269531 -25.054688 12.25 -23.359375 L 12.25 -3.609375 C 12.25 -2.097656 12.929688 -1.144531 14.296875 -0.75 L 14.8125 -0.578125 L 14.8125 0 Z M 1.15625 0 "/></g></g></g><g fill="#000000" fill-opacity="0.4"><g transform="translate(672.043049, 672.900526)"><g><path d="M 9.640625 0.875 C 7.398438 0.875 5.515625 0.234375 3.984375 -1.046875 C 2.453125 -2.328125 1.6875 -4.164062 1.6875 -6.5625 C 1.6875 -8.382812 2.613281 -10.0625 4.46875 -11.59375 C 6.332031 -13.125 9.257812 -14.273438 13.25 -15.046875 C 13.863281 -15.160156 14.554688 -15.285156 15.328125 -15.421875 C 16.109375 -15.554688 16.925781 -15.703125 17.78125 -15.859375 L 17.78125 -20.453125 C 17.78125 -23.085938 17.457031 -24.9375 16.8125 -26 C 16.175781 -27.0625 15.179688 -27.59375 13.828125 -27.59375 C 12.898438 -27.59375 12.164062 -27.289062 11.625 -26.6875 C 11.082031 -26.09375 10.734375 -25.0625 10.578125 -23.59375 L 10.453125 -22.953125 C 10.378906 -21.285156 9.972656 -20.0625 9.234375 -19.28125 C 8.503906 -18.507812 7.59375 -18.125 6.5 -18.125 C 5.5 -18.125 4.664062 -18.429688 4 -19.046875 C 3.34375 -19.671875 3.015625 -20.503906 3.015625 -21.546875 C 3.015625 -23.140625 3.566406 -24.476562 4.671875 -25.5625 C 5.773438 -26.644531 7.238281 -27.457031 9.0625 -28 C 10.882812 -28.539062 12.859375 -28.8125 14.984375 -28.8125 C 18.429688 -28.8125 21.09375 -27.96875 22.96875 -26.28125 C 24.851562 -24.601562 25.796875 -21.863281 25.796875 -18.0625 L 25.796875 -5.234375 C 25.796875 -3.484375 26.609375 -2.609375 28.234375 -2.609375 L 29.515625 -2.609375 L 30.03125 -2.15625 C 29.300781 -1.21875 28.5 -0.5 27.625 0 C 26.75 0.5 25.519531 0.75 23.9375 0.75 C 22.226562 0.75 20.878906 0.351562 19.890625 -0.4375 C 18.910156 -1.226562 18.265625 -2.285156 17.953125 -3.609375 C 16.785156 -2.367188 15.59375 -1.3125 14.375 -0.4375 C 13.15625 0.4375 11.578125 0.875 9.640625 0.875 Z M 13.1875 -2.671875 C 13.957031 -2.671875 14.679688 -2.851562 15.359375 -3.21875 C 16.035156 -3.59375 16.84375 -4.164062 17.78125 -4.9375 L 17.78125 -14.703125 C 17.394531 -14.617188 17.003906 -14.535156 16.609375 -14.453125 C 16.222656 -14.378906 15.78125 -14.304688 15.28125 -14.234375 C 13.5 -13.765625 12.070312 -12.976562 11 -11.875 C 9.9375 -10.769531 9.40625 -9.289062 9.40625 -7.4375 C 9.40625 -5.84375 9.773438 -4.648438 10.515625 -3.859375 C 11.253906 -3.066406 12.144531 -2.671875 13.1875 -2.671875 Z M 13.1875 -2.671875 "/></g></g></g><g fill="#000000" fill-opacity="0.4"><g transform="translate(702.136957, 672.900526)"><g><path d="M 1.15625 0 L 1.15625 -0.578125 L 1.96875 -0.8125 C 3.332031 -1.195312 4.015625 -2.144531 4.015625 -3.65625 L 4.015625 -21.84375 C 4.015625 -22.695312 3.875 -23.328125 3.59375 -23.734375 C 3.320312 -24.140625 2.800781 -24.421875 2.03125 -24.578125 L 1.15625 -24.8125 L 1.15625 -25.390625 L 11.09375 -28.75 L 11.671875 -28.171875 L 12.140625 -24.6875 C 13.492188 -25.882812 15.019531 -26.867188 16.71875 -27.640625 C 18.425781 -28.421875 20.113281 -28.8125 21.78125 -28.8125 C 24.34375 -28.8125 26.3125 -28.113281 27.6875 -26.71875 C 29.0625 -25.320312 29.75 -23.191406 29.75 -20.328125 L 29.75 -3.609375 C 29.75 -2.097656 30.484375 -1.144531 31.953125 -0.75 L 32.46875 -0.578125 L 32.46875 0 L 18.765625 0 L 18.765625 -0.578125 L 19.515625 -0.8125 C 20.867188 -1.238281 21.546875 -2.1875 21.546875 -3.65625 L 21.546875 -22.1875 C 21.546875 -24.664062 20.304688 -25.90625 17.828125 -25.90625 C 16.128906 -25.90625 14.269531 -25.054688 12.25 -23.359375 L 12.25 -3.609375 C 12.25 -2.097656 12.929688 -1.144531 14.296875 -0.75 L 14.8125 -0.578125 L 14.8125 0 Z M 1.15625 0 "/></g></g></g><g fill="#000000" fill-opacity="0.4"><g transform="translate(735.716671, 672.900526)"><g><path d="M 15.5625 0.875 C 12.9375 0.875 10.546875 0.300781 8.390625 -0.84375 C 6.242188 -1.988281 4.539062 -3.65625 3.28125 -5.84375 C 2.019531 -8.03125 1.390625 -10.710938 1.390625 -13.890625 C 1.390625 -17.023438 2.078125 -19.703125 3.453125 -21.921875 C 4.828125 -24.148438 6.664062 -25.851562 8.96875 -27.03125 C 11.28125 -28.21875 13.8125 -28.8125 16.5625 -28.8125 C 18.800781 -28.8125 20.695312 -28.441406 22.25 -27.703125 C 23.800781 -26.972656 24.984375 -26.015625 25.796875 -24.828125 C 26.609375 -23.648438 27.015625 -22.421875 27.015625 -21.140625 C 27.015625 -20.054688 26.679688 -19.210938 26.015625 -18.609375 C 25.359375 -18.015625 24.507812 -17.71875 23.46875 -17.71875 C 22.34375 -17.71875 21.429688 -18.125 20.734375 -18.9375 C 20.035156 -19.75 19.628906 -20.816406 19.515625 -22.140625 C 19.484375 -22.984375 19.503906 -23.707031 19.578125 -24.3125 C 19.648438 -24.914062 19.648438 -25.523438 19.578125 -26.140625 C 19.421875 -26.796875 19.175781 -27.226562 18.84375 -27.4375 C 18.519531 -27.65625 18.066406 -27.765625 17.484375 -27.765625 C 15.117188 -27.765625 13.285156 -26.738281 11.984375 -24.6875 C 10.691406 -22.632812 10.046875 -19.363281 10.046875 -14.875 C 10.046875 -10.957031 10.769531 -7.960938 12.21875 -5.890625 C 13.675781 -3.816406 15.914062 -2.78125 18.9375 -2.78125 C 20.757812 -2.78125 22.226562 -3.109375 23.34375 -3.765625 C 24.46875 -4.429688 25.554688 -5.421875 26.609375 -6.734375 L 27.1875 -6.28125 C 26.21875 -3.988281 24.722656 -2.222656 22.703125 -0.984375 C 20.691406 0.253906 18.3125 0.875 15.5625 0.875 Z M 15.5625 0.875 "/></g></g></g><g fill="#000000" fill-opacity="0.4"><g transform="translate(764.416271, 672.900526)"><g><path d="M 15.75 -28.8125 C 18.257812 -28.8125 20.40625 -28.296875 22.1875 -27.265625 C 23.96875 -26.242188 25.332031 -24.851562 26.28125 -23.09375 C 27.226562 -21.332031 27.703125 -19.328125 27.703125 -17.078125 C 27.703125 -16.648438 27.679688 -16.210938 27.640625 -15.765625 C 27.609375 -15.328125 27.535156 -14.929688 27.421875 -14.578125 L 10.109375 -14.578125 C 10.148438 -10.398438 10.894531 -7.390625 12.34375 -5.546875 C 13.800781 -3.703125 15.960938 -2.78125 18.828125 -2.78125 C 20.765625 -2.78125 22.332031 -3.085938 23.53125 -3.703125 C 24.726562 -4.328125 25.847656 -5.242188 26.890625 -6.453125 L 27.484375 -5.921875 C 26.273438 -3.796875 24.671875 -2.128906 22.671875 -0.921875 C 20.679688 0.273438 18.296875 0.875 15.515625 0.875 C 12.765625 0.875 10.320312 0.285156 8.1875 -0.890625 C 6.0625 -2.078125 4.394531 -3.773438 3.1875 -5.984375 C 1.988281 -8.191406 1.390625 -10.828125 1.390625 -13.890625 C 1.390625 -17.054688 2.085938 -19.753906 3.484375 -21.984375 C 4.878906 -24.210938 6.671875 -25.90625 8.859375 -27.0625 C 11.046875 -28.226562 13.34375 -28.8125 15.75 -28.8125 Z M 15.5625 -27.65625 C 14.445312 -27.65625 13.488281 -27.316406 12.6875 -26.640625 C 11.894531 -25.960938 11.273438 -24.757812 10.828125 -23.03125 C 10.390625 -21.3125 10.148438 -18.882812 10.109375 -15.75 L 20.046875 -15.75 C 20.429688 -19.96875 20.273438 -23.003906 19.578125 -24.859375 C 18.878906 -26.722656 17.539062 -27.65625 15.5625 -27.65625 Z M 15.5625 -27.65625 "/></g></g></g><g fill="#000000" fill-opacity="0.4"><g transform="translate(793.871118, 672.900526)"><g/></g></g><g fill="#000000" fill-opacity="0.4"><g transform="translate(806.536146, 672.900526)"><g><path d="M 1.15625 0 L 1.15625 -0.578125 L 2.328125 -0.984375 C 3.640625 -1.410156 4.296875 -2.515625 4.296875 -4.296875 L 4.296875 -34.046875 C 4.296875 -34.816406 4.207031 -35.429688 4.03125 -35.890625 C 3.863281 -36.359375 3.410156 -36.75 2.671875 -37.0625 L 1.15625 -37.765625 L 1.15625 -38.34375 L 12.375 -38.34375 L 23.125 -10.21875 L 33.234375 -38.34375 L 44.671875 -38.34375 L 44.671875 -37.765625 L 43.75 -37.40625 C 43.007812 -37.132812 42.503906 -36.753906 42.234375 -36.265625 C 41.960938 -35.785156 41.828125 -35.160156 41.828125 -34.390625 L 41.828125 -4.015625 C 41.828125 -3.234375 41.921875 -2.628906 42.109375 -2.203125 C 42.304688 -1.773438 42.773438 -1.410156 43.515625 -1.109375 L 44.671875 -0.578125 L 44.671875 0 L 30.203125 0 L 30.203125 -0.578125 L 31.421875 -1.109375 C 32.160156 -1.410156 32.625 -1.773438 32.8125 -2.203125 C 33.007812 -2.628906 33.109375 -3.234375 33.109375 -4.015625 L 33.109375 -17.078125 L 33.234375 -33.6875 L 21.09375 0 L 18.1875 0 L 5.515625 -33.28125 L 5.6875 -18.828125 L 5.6875 -4.1875 C 5.6875 -3.332031 5.8125 -2.644531 6.0625 -2.125 C 6.320312 -1.601562 6.816406 -1.222656 7.546875 -0.984375 L 8.828125 -0.578125 L 8.828125 0 Z M 1.15625 0 "/></g></g></g><g fill="#000000" fill-opacity="0.4"><g transform="translate(852.490384, 672.900526)"><g><path d="M 9.640625 0.875 C 7.398438 0.875 5.515625 0.234375 3.984375 -1.046875 C 2.453125 -2.328125 1.6875 -4.164062 1.6875 -6.5625 C 1.6875 -8.382812 2.613281 -10.0625 4.46875 -11.59375 C 6.332031 -13.125 9.257812 -14.273438 13.25 -15.046875 C 13.863281 -15.160156 14.554688 -15.285156 15.328125 -15.421875 C 16.109375 -15.554688 16.925781 -15.703125 17.78125 -15.859375 L 17.78125 -20.453125 C 17.78125 -23.085938 17.457031 -24.9375 16.8125 -26 C 16.175781 -27.0625 15.179688 -27.59375 13.828125 -27.59375 C 12.898438 -27.59375 12.164062 -27.289062 11.625 -26.6875 C 11.082031 -26.09375 10.734375 -25.0625 10.578125 -23.59375 L 10.453125 -22.953125 C 10.378906 -21.285156 9.972656 -20.0625 9.234375 -19.28125 C 8.503906 -18.507812 7.59375 -18.125 6.5 -18.125 C 5.5 -18.125 4.664062 -18.429688 4 -19.046875 C 3.34375 -19.671875 3.015625 -20.503906 3.015625 -21.546875 C 3.015625 -23.140625 3.566406 -24.476562 4.671875 -25.5625 C 5.773438 -26.644531 7.238281 -27.457031 9.0625 -28 C 10.882812 -28.539062 12.859375 -28.8125 14.984375 -28.8125 C 18.429688 -28.8125 21.09375 -27.96875 22.96875 -26.28125 C 24.851562 -24.601562 25.796875 -21.863281 25.796875 -18.0625 L 25.796875 -5.234375 C 25.796875 -3.484375 26.609375 -2.609375 28.234375 -2.609375 L 29.515625 -2.609375 L 30.03125 -2.15625 C 29.300781 -1.21875 28.5 -0.5 27.625 0 C 26.75 0.5 25.519531 0.75 23.9375 0.75 C 22.226562 0.75 20.878906 0.351562 19.890625 -0.4375 C 18.910156 -1.226562 18.265625 -2.285156 17.953125 -3.609375 C 16.785156 -2.367188 15.59375 -1.3125 14.375 -0.4375 C 13.15625 0.4375 11.578125 0.875 9.640625 0.875 Z M 13.1875 -2.671875 C 13.957031 -2.671875 14.679688 -2.851562 15.359375 -3.21875 C 16.035156 -3.59375 16.84375 -4.164062 17.78125 -4.9375 L 17.78125 -14.703125 C 17.394531 -14.617188 17.003906 -14.535156 16.609375 -14.453125 C 16.222656 -14.378906 15.78125 -14.304688 15.28125 -14.234375 C 13.5 -13.765625 12.070312 -12.976562 11 -11.875 C 9.9375 -10.769531 9.40625 -9.289062 9.40625 -7.4375 C 9.40625 -5.84375 9.773438 -4.648438 10.515625 -3.859375 C 11.253906 -3.066406 12.144531 -2.671875 13.1875 -2.671875 Z M 13.1875 -2.671875 "/></g></g></g><g fill="#000000" fill-opacity="0.4"><g transform="translate(882.584292, 672.900526)"><g><path d="M 13.484375 0.875 C 11.191406 0.875 9.132812 0.363281 7.3125 -0.65625 C 5.5 -1.6875 4.054688 -3.273438 2.984375 -5.421875 C 1.921875 -7.578125 1.390625 -10.335938 1.390625 -13.703125 C 1.390625 -17.117188 1.988281 -19.9375 3.1875 -22.15625 C 4.394531 -24.382812 5.984375 -26.050781 7.953125 -27.15625 C 9.929688 -28.257812 12.082031 -28.8125 14.40625 -28.8125 C 15.757812 -28.8125 17.054688 -28.675781 18.296875 -28.40625 C 19.535156 -28.132812 20.640625 -27.726562 21.609375 -27.1875 L 21.609375 -34.734375 C 21.609375 -35.546875 21.484375 -36.144531 21.234375 -36.53125 C 20.984375 -36.925781 20.453125 -37.203125 19.640625 -37.359375 L 18.53125 -37.59375 L 18.53125 -38.171875 L 29.109375 -40.71875 L 29.75 -40.203125 L 29.515625 -32.0625 L 29.515625 -3.65625 C 29.515625 -2.882812 29.648438 -2.253906 29.921875 -1.765625 C 30.191406 -1.285156 30.691406 -0.945312 31.421875 -0.75 L 31.953125 -0.578125 L 31.953125 0 L 22.015625 0.640625 L 21.5 -1.453125 C 20.445312 -0.753906 19.253906 -0.191406 17.921875 0.234375 C 16.585938 0.660156 15.109375 0.875 13.484375 0.875 Z M 16.84375 -1.28125 C 18.46875 -1.28125 19.960938 -1.765625 21.328125 -2.734375 L 21.328125 -25.796875 C 19.890625 -26.722656 18.414062 -27.1875 16.90625 -27.1875 C 15.039062 -27.1875 13.453125 -26.109375 12.140625 -23.953125 C 10.828125 -21.804688 10.171875 -18.429688 10.171875 -13.828125 C 10.171875 -9.210938 10.789062 -5.96875 12.03125 -4.09375 C 13.269531 -2.21875 14.875 -1.28125 16.84375 -1.28125 Z M 16.84375 -1.28125 "/></g></g></g><g fill="#000000" fill-opacity="0.4"><g transform="translate(915.931634, 672.900526)"><g><path d="M 15.75 -28.8125 C 18.257812 -28.8125 20.40625 -28.296875 22.1875 -27.265625 C 23.96875 -26.242188 25.332031 -24.851562 26.28125 -23.09375 C 27.226562 -21.332031 27.703125 -19.328125 27.703125 -17.078125 C 27.703125 -16.648438 27.679688 -16.210938 27.640625 -15.765625 C 27.609375 -15.328125 27.535156 -14.929688 27.421875 -14.578125 L 10.109375 -14.578125 C 10.148438 -10.398438 10.894531 -7.390625 12.34375 -5.546875 C 13.800781 -3.703125 15.960938 -2.78125 18.828125 -2.78125 C 20.765625 -2.78125 22.332031 -3.085938 23.53125 -3.703125 C 24.726562 -4.328125 25.847656 -5.242188 26.890625 -6.453125 L 27.484375 -5.921875 C 26.273438 -3.796875 24.671875 -2.128906 22.671875 -0.921875 C 20.679688 0.273438 18.296875 0.875 15.515625 0.875 C 12.765625 0.875 10.320312 0.285156 8.1875 -0.890625 C 6.0625 -2.078125 4.394531 -3.773438 3.1875 -5.984375 C 1.988281 -8.191406 1.390625 -10.828125 1.390625 -13.890625 C 1.390625 -17.054688 2.085938 -19.753906 3.484375 -21.984375 C 4.878906 -24.210938 6.671875 -25.90625 8.859375 -27.0625 C 11.046875 -28.226562 13.34375 -28.8125 15.75 -28.8125 Z M 15.5625 -27.65625 C 14.445312 -27.65625 13.488281 -27.316406 12.6875 -26.640625 C 11.894531 -25.960938 11.273438 -24.757812 10.828125 -23.03125 C 10.390625 -21.3125 10.148438 -18.882812 10.109375 -15.75 L 20.046875 -15.75 C 20.429688 -19.96875 20.273438 -23.003906 19.578125 -24.859375 C 18.878906 -26.722656 17.539062 -27.65625 15.5625 -27.65625 Z M 15.5625 -27.65625 "/></g></g></g><g fill="#000000" fill-opacity="0.4"><g transform="translate(945.386481, 672.900526)"><g/></g></g><g fill="#000000" fill-opacity="0.4"><g transform="translate(958.051509, 672.900526)"><g><path d="M 13.765625 1.046875 C 11.640625 1.046875 9.472656 0.785156 7.265625 0.265625 C 5.054688 -0.253906 3.21875 -0.941406 1.75 -1.796875 L 2.03125 -9.703125 L 2.609375 -9.703125 L 4.421875 -5.921875 C 4.960938 -4.835938 5.539062 -3.878906 6.15625 -3.046875 C 6.78125 -2.210938 7.632812 -1.566406 8.71875 -1.109375 C 9.488281 -0.710938 10.234375 -0.445312 10.953125 -0.3125 C 11.671875 -0.175781 12.472656 -0.109375 13.359375 -0.109375 C 15.722656 -0.109375 17.59375 -0.75 18.96875 -2.03125 C 20.34375 -3.3125 21.03125 -4.957031 21.03125 -6.96875 C 21.03125 -8.863281 20.5625 -10.34375 19.625 -11.40625 C 18.695312 -12.476562 17.207031 -13.519531 15.15625 -14.53125 L 12.78125 -15.5625 C 9.445312 -17.039062 6.84375 -18.738281 4.96875 -20.65625 C 3.09375 -22.570312 2.15625 -25.117188 2.15625 -28.296875 C 2.15625 -30.578125 2.742188 -32.550781 3.921875 -34.21875 C 5.097656 -35.882812 6.742188 -37.160156 8.859375 -38.046875 C 10.972656 -38.941406 13.441406 -39.390625 16.265625 -39.390625 C 18.316406 -39.390625 20.257812 -39.117188 22.09375 -38.578125 C 23.9375 -38.035156 25.535156 -37.296875 26.890625 -36.359375 L 26.546875 -29.390625 L 25.96875 -29.390625 L 23.59375 -33.75 C 22.925781 -35.101562 22.265625 -36.0625 21.609375 -36.625 C 20.953125 -37.1875 20.195312 -37.582031 19.34375 -37.8125 C 18.84375 -37.96875 18.378906 -38.070312 17.953125 -38.125 C 17.523438 -38.1875 16.984375 -38.21875 16.328125 -38.21875 C 14.347656 -38.21875 12.679688 -37.644531 11.328125 -36.5 C 9.972656 -35.363281 9.296875 -33.828125 9.296875 -31.890625 C 9.296875 -29.921875 9.816406 -28.34375 10.859375 -27.15625 C 11.910156 -25.976562 13.441406 -24.925781 15.453125 -24 L 18.125 -22.828125 C 21.84375 -21.203125 24.515625 -19.46875 26.140625 -17.625 C 27.765625 -15.789062 28.578125 -13.421875 28.578125 -10.515625 C 28.578125 -7.109375 27.289062 -4.328125 24.71875 -2.171875 C 22.144531 -0.0234375 18.492188 1.046875 13.765625 1.046875 Z M 13.765625 1.046875 "/></g></g></g><g fill="#000000" fill-opacity="0.4"><g transform="translate(988.319733, 672.900526)"><g><path d="M 8.140625 -31.828125 C 6.816406 -31.828125 5.695312 -32.242188 4.78125 -33.078125 C 3.875 -33.910156 3.421875 -34.96875 3.421875 -36.25 C 3.421875 -37.5625 3.875 -38.625 4.78125 -39.4375 C 5.695312 -40.257812 6.816406 -40.671875 8.140625 -40.671875 C 9.453125 -40.671875 10.550781 -40.257812 11.4375 -39.4375 C 12.332031 -38.625 12.78125 -37.5625 12.78125 -36.25 C 12.78125 -34.96875 12.332031 -33.910156 11.4375 -33.078125 C 10.550781 -32.242188 9.453125 -31.828125 8.140625 -31.828125 Z M 1.28125 0 L 1.28125 -0.578125 L 2.09375 -0.8125 C 2.863281 -1.039062 3.394531 -1.390625 3.6875 -1.859375 C 3.976562 -2.328125 4.125 -2.945312 4.125 -3.71875 L 4.125 -21.90625 C 4.125 -22.71875 3.976562 -23.328125 3.6875 -23.734375 C 3.394531 -24.140625 2.863281 -24.421875 2.09375 -24.578125 L 1.28125 -24.75 L 1.28125 -25.328125 L 11.90625 -28.75 L 12.484375 -28.171875 L 12.3125 -19.921875 L 12.3125 -3.65625 C 12.3125 -2.882812 12.457031 -2.265625 12.75 -1.796875 C 13.039062 -1.335938 13.554688 -0.988281 14.296875 -0.75 L 14.875 -0.578125 L 14.875 0 Z M 1.28125 0 "/></g></g></g><g fill="#000000" fill-opacity="0.4"><g transform="translate(1004.586753, 672.900526)"><g><path d="M 1.15625 0 L 1.15625 -0.578125 L 1.96875 -0.8125 C 2.707031 -1.007812 3.222656 -1.335938 3.515625 -1.796875 C 3.804688 -2.265625 3.972656 -2.882812 4.015625 -3.65625 L 4.015625 -21.84375 C 4.015625 -22.695312 3.875 -23.328125 3.59375 -23.734375 C 3.320312 -24.140625 2.800781 -24.421875 2.03125 -24.578125 L 1.15625 -24.8125 L 1.15625 -25.390625 L 11.09375 -28.75 L 11.671875 -28.171875 L 12.140625 -24.21875 C 13.421875 -25.5 14.882812 -26.582031 16.53125 -27.46875 C 18.175781 -28.363281 19.890625 -28.8125 21.671875 -28.8125 C 23.523438 -28.8125 25.015625 -28.429688 26.140625 -27.671875 C 27.265625 -26.921875 28.117188 -25.753906 28.703125 -24.171875 C 30.210938 -25.597656 31.847656 -26.726562 33.609375 -27.5625 C 35.367188 -28.394531 37.082031 -28.8125 38.75 -28.8125 C 41.5 -28.8125 43.519531 -28.148438 44.8125 -26.828125 C 46.113281 -25.515625 46.765625 -23.445312 46.765625 -20.625 L 46.765625 -3.609375 C 46.765625 -2.097656 47.460938 -1.144531 48.859375 -0.75 L 49.5 -0.578125 L 49.5 0 L 36.078125 0 L 36.078125 -0.578125 L 36.65625 -0.75 C 37.394531 -0.988281 37.90625 -1.335938 38.1875 -1.796875 C 38.476562 -2.265625 38.625 -2.882812 38.625 -3.65625 L 38.625 -21.4375 C 38.625 -23.0625 38.332031 -24.171875 37.75 -24.765625 C 37.175781 -25.367188 36.25 -25.671875 34.96875 -25.671875 C 33.96875 -25.671875 32.988281 -25.445312 32.03125 -25 C 31.082031 -24.5625 30.085938 -23.894531 29.046875 -23 C 29.242188 -22.382812 29.367188 -21.707031 29.421875 -20.96875 C 29.484375 -20.238281 29.515625 -19.460938 29.515625 -18.640625 L 29.515625 -3.609375 C 29.546875 -2.097656 30.242188 -1.144531 31.609375 -0.75 L 32.125 -0.578125 L 32.125 0 L 18.640625 0 L 18.640625 -0.578125 L 19.46875 -0.8125 C 20.195312 -1.039062 20.707031 -1.378906 21 -1.828125 C 21.289062 -2.273438 21.4375 -2.882812 21.4375 -3.65625 L 21.4375 -21.375 C 21.4375 -22.925781 21.15625 -24.03125 20.59375 -24.6875 C 20.03125 -25.34375 19.070312 -25.671875 17.71875 -25.671875 C 16.820312 -25.671875 15.925781 -25.445312 15.03125 -25 C 14.144531 -24.5625 13.21875 -23.914062 12.25 -23.0625 L 12.25 -3.609375 C 12.25 -2.097656 12.929688 -1.144531 14.296875 -0.75 L 14.8125 -0.578125 L 14.8125 0 Z M 1.15625 0 "/></g></g></g><g fill="#000000" fill-opacity="0.4"><g transform="translate(1055.188733, 672.900526)"><g><path d="M 1.15625 13.359375 L 1.15625 12.78125 L 1.859375 12.546875 C 3.296875 12.160156 4.015625 11.234375 4.015625 9.765625 L 4.015625 -21.84375 C 4.015625 -22.695312 3.867188 -23.335938 3.578125 -23.765625 C 3.285156 -24.191406 2.75 -24.476562 1.96875 -24.625 L 1.15625 -24.8125 L 1.15625 -25.390625 L 11.03125 -28.75 L 11.625 -28.171875 L 12.140625 -26.375 C 13.421875 -27.144531 14.84375 -27.742188 16.40625 -28.171875 C 17.976562 -28.597656 19.597656 -28.8125 21.265625 -28.8125 C 24.597656 -28.8125 27.238281 -27.539062 29.1875 -25 C 31.144531 -22.46875 32.125 -18.835938 32.125 -14.109375 C 32.125 -9.460938 31.046875 -5.800781 28.890625 -3.125 C 26.742188 -0.457031 23.71875 0.875 19.8125 0.875 C 16.75 0.875 14.171875 0.425781 12.078125 -0.46875 L 12.078125 9.578125 C 12.078125 11.128906 12.773438 12.097656 14.171875 12.484375 L 15.28125 12.78125 L 15.28125 13.359375 Z M 17.015625 -0.8125 C 18.953125 -0.8125 20.492188 -1.816406 21.640625 -3.828125 C 22.785156 -5.847656 23.359375 -9.203125 23.359375 -13.890625 C 23.359375 -18.566406 22.8125 -21.84375 21.71875 -23.71875 C 20.632812 -25.601562 19.066406 -26.546875 17.015625 -26.546875 C 15.585938 -26.546875 14 -26.082031 12.25 -25.15625 L 12.25 -1.75 C 13.726562 -1.125 15.316406 -0.8125 17.015625 -0.8125 Z M 17.015625 -0.8125 "/></g></g></g><g fill="#000000" fill-opacity="0.4"><g transform="translate(1088.768447, 672.900526)"><g><path d="M 1.34375 0 L 1.34375 -0.578125 L 2.03125 -0.8125 C 3.425781 -1.28125 4.125 -2.25 4.125 -3.71875 L 4.125 -34.796875 C 4.125 -35.566406 3.96875 -36.15625 3.65625 -36.5625 C 3.34375 -36.976562 2.800781 -37.28125 2.03125 -37.46875 L 1.28125 -37.640625 L 1.28125 -38.21875 L 11.90625 -40.71875 L 12.609375 -40.203125 L 12.375 -32.0625 L 12.375 -12.203125 C 12.375 -10.765625 12.382812 -9.335938 12.40625 -7.921875 C 12.425781 -6.515625 12.4375 -5.113281 12.4375 -3.71875 C 12.4375 -2.945312 12.585938 -2.316406 12.890625 -1.828125 C 13.203125 -1.347656 13.726562 -0.988281 14.46875 -0.75 L 15.21875 -0.578125 L 15.21875 0 Z M 1.34375 0 "/></g></g></g><g fill="#000000" fill-opacity="0.4"><g transform="translate(1105.384025, 672.900526)"><g><path d="M 15.75 -28.8125 C 18.257812 -28.8125 20.40625 -28.296875 22.1875 -27.265625 C 23.96875 -26.242188 25.332031 -24.851562 26.28125 -23.09375 C 27.226562 -21.332031 27.703125 -19.328125 27.703125 -17.078125 C 27.703125 -16.648438 27.679688 -16.210938 27.640625 -15.765625 C 27.609375 -15.328125 27.535156 -14.929688 27.421875 -14.578125 L 10.109375 -14.578125 C 10.148438 -10.398438 10.894531 -7.390625 12.34375 -5.546875 C 13.800781 -3.703125 15.960938 -2.78125 18.828125 -2.78125 C 20.765625 -2.78125 22.332031 -3.085938 23.53125 -3.703125 C 24.726562 -4.328125 25.847656 -5.242188 26.890625 -6.453125 L 27.484375 -5.921875 C 26.273438 -3.796875 24.671875 -2.128906 22.671875 -0.921875 C 20.679688 0.273438 18.296875 0.875 15.515625 0.875 C 12.765625 0.875 10.320312 0.285156 8.1875 -0.890625 C 6.0625 -2.078125 4.394531 -3.773438 3.1875 -5.984375 C 1.988281 -8.191406 1.390625 -10.828125 1.390625 -13.890625 C 1.390625 -17.054688 2.085938 -19.753906 3.484375 -21.984375 C 4.878906 -24.210938 6.671875 -25.90625 8.859375 -27.0625 C 11.046875 -28.226562 13.34375 -28.8125 15.75 -28.8125 Z M 15.5625 -27.65625 C 14.445312 -27.65625 13.488281 -27.316406 12.6875 -26.640625 C 11.894531 -25.960938 11.273438 -24.757812 10.828125 -23.03125 C 10.390625 -21.3125 10.148438 -18.882812 10.109375 -15.75 L 20.046875 -15.75 C 20.429688 -19.96875 20.273438 -23.003906 19.578125 -24.859375 C 18.878906 -26.722656 17.539062 -27.65625 15.5625 -27.65625 Z M 15.5625 -27.65625 "/></g></g></g><g fill="#000000" fill-opacity="1"><g transform="translate(295.044177, 670.332886)"><g><path d="M 1.28125 0 L 1.28125 -0.578125 L 2.4375 -1.046875 C 3.21875 -1.316406 3.734375 -1.679688 3.984375 -2.140625 C 4.234375 -2.609375 4.359375 -3.210938 4.359375 -3.953125 L 4.359375 -34.328125 C 4.359375 -35.109375 4.234375 -35.726562 3.984375 -36.1875 C 3.734375 -36.65625 3.21875 -37.023438 2.4375 -37.296875 L 1.28125 -37.765625 L 1.28125 -38.34375 L 16.03125 -38.34375 L 16.03125 -37.765625 L 15.046875 -37.359375 C 14.304688 -37.085938 13.800781 -36.726562 13.53125 -36.28125 C 13.257812 -35.832031 13.125 -35.222656 13.125 -34.453125 L 13.125 -20.328125 L 27.015625 -20.328125 L 27.015625 -34.453125 C 27.015625 -35.222656 26.890625 -35.832031 26.640625 -36.28125 C 26.390625 -36.726562 25.875 -37.085938 25.09375 -37.359375 L 24.046875 -37.765625 L 24.046875 -38.34375 L 38.859375 -38.34375 L 38.859375 -37.765625 L 37.703125 -37.296875 C 36.960938 -37.023438 36.457031 -36.65625 36.1875 -36.1875 C 35.914062 -35.726562 35.78125 -35.109375 35.78125 -34.328125 L 35.78125 -3.953125 C 35.78125 -3.210938 35.914062 -2.609375 36.1875 -2.140625 C 36.457031 -1.679688 36.960938 -1.316406 37.703125 -1.046875 L 38.859375 -0.578125 L 38.859375 0 L 24.046875 0 L 24.046875 -0.578125 L 25.09375 -0.921875 C 25.875 -1.234375 26.390625 -1.613281 26.640625 -2.0625 C 26.890625 -2.507812 27.015625 -3.117188 27.015625 -3.890625 L 27.015625 -19.171875 L 13.125 -19.171875 L 13.125 -3.890625 C 13.125 -2.460938 13.765625 -1.472656 15.046875 -0.921875 L 16.03125 -0.578125 L 16.03125 0 Z M 1.28125 0 "/></g></g></g><g fill="#000000" fill-opacity="1"><g transform="translate(335.188777, 670.332886)"><g><path d="M 15.859375 0.875 C 12.910156 0.875 10.351562 0.265625 8.1875 -0.953125 C 6.019531 -2.171875 4.34375 -3.90625 3.15625 -6.15625 C 1.976562 -8.40625 1.390625 -11.039062 1.390625 -14.0625 C 1.390625 -17.082031 2.019531 -19.695312 3.28125 -21.90625 C 4.539062 -24.113281 6.265625 -25.816406 8.453125 -27.015625 C 10.640625 -28.210938 13.109375 -28.8125 15.859375 -28.8125 C 18.609375 -28.8125 21.066406 -28.21875 23.234375 -27.03125 C 25.398438 -25.851562 27.113281 -24.160156 28.375 -21.953125 C 29.632812 -19.742188 30.265625 -17.113281 30.265625 -14.0625 C 30.265625 -11 29.671875 -8.351562 28.484375 -6.125 C 27.304688 -3.894531 25.644531 -2.171875 23.5 -0.953125 C 21.351562 0.265625 18.804688 0.875 15.859375 0.875 Z M 15.859375 -0.296875 C 17.210938 -0.296875 18.296875 -0.679688 19.109375 -1.453125 C 19.921875 -2.222656 20.507812 -3.597656 20.875 -5.578125 C 21.25 -7.554688 21.4375 -10.34375 21.4375 -13.9375 C 21.4375 -17.582031 21.25 -20.390625 20.875 -22.359375 C 20.507812 -24.335938 19.921875 -25.710938 19.109375 -26.484375 C 18.296875 -27.265625 17.210938 -27.65625 15.859375 -27.65625 C 14.503906 -27.65625 13.410156 -27.265625 12.578125 -26.484375 C 11.742188 -25.710938 11.140625 -24.335938 10.765625 -22.359375 C 10.398438 -20.390625 10.21875 -17.582031 10.21875 -13.9375 C 10.21875 -10.34375 10.398438 -7.554688 10.765625 -5.578125 C 11.140625 -3.597656 11.742188 -2.222656 12.578125 -1.453125 C 13.410156 -0.679688 14.503906 -0.296875 15.859375 -0.296875 Z M 15.859375 -0.296875 "/></g></g></g><g fill="#000000" fill-opacity="1"><g transform="translate(366.851308, 670.332886)"><g><path d="M 1.15625 0 L 1.15625 -0.578125 L 1.96875 -0.8125 C 2.707031 -1.007812 3.222656 -1.335938 3.515625 -1.796875 C 3.804688 -2.265625 3.972656 -2.882812 4.015625 -3.65625 L 4.015625 -21.84375 C 4.015625 -22.695312 3.875 -23.328125 3.59375 -23.734375 C 3.320312 -24.140625 2.800781 -24.421875 2.03125 -24.578125 L 1.15625 -24.8125 L 1.15625 -25.390625 L 11.09375 -28.75 L 11.671875 -28.171875 L 12.140625 -24.21875 C 13.421875 -25.5 14.882812 -26.582031 16.53125 -27.46875 C 18.175781 -28.363281 19.890625 -28.8125 21.671875 -28.8125 C 23.523438 -28.8125 25.015625 -28.429688 26.140625 -27.671875 C 27.265625 -26.921875 28.117188 -25.753906 28.703125 -24.171875 C 30.210938 -25.597656 31.847656 -26.726562 33.609375 -27.5625 C 35.367188 -28.394531 37.082031 -28.8125 38.75 -28.8125 C 41.5 -28.8125 43.519531 -28.148438 44.8125 -26.828125 C 46.113281 -25.515625 46.765625 -23.445312 46.765625 -20.625 L 46.765625 -3.609375 C 46.765625 -2.097656 47.460938 -1.144531 48.859375 -0.75 L 49.5 -0.578125 L 49.5 0 L 36.078125 0 L 36.078125 -0.578125 L 36.65625 -0.75 C 37.394531 -0.988281 37.90625 -1.335938 38.1875 -1.796875 C 38.476562 -2.265625 38.625 -2.882812 38.625 -3.65625 L 38.625 -21.4375 C 38.625 -23.0625 38.332031 -24.171875 37.75 -24.765625 C 37.175781 -25.367188 36.25 -25.671875 34.96875 -25.671875 C 33.96875 -25.671875 32.988281 -25.445312 32.03125 -25 C 31.082031 -24.5625 30.085938 -23.894531 29.046875 -23 C 29.242188 -22.382812 29.367188 -21.707031 29.421875 -20.96875 C 29.484375 -20.238281 29.515625 -19.460938 29.515625 -18.640625 L 29.515625 -3.609375 C 29.546875 -2.097656 30.242188 -1.144531 31.609375 -0.75 L 32.125 -0.578125 L 32.125 0 L 18.640625 0 L 18.640625 -0.578125 L 19.46875 -0.8125 C 20.195312 -1.039062 20.707031 -1.378906 21 -1.828125 C 21.289062 -2.273438 21.4375 -2.882812 21.4375 -3.65625 L 21.4375 -21.375 C 21.4375 -22.925781 21.15625 -24.03125 20.59375 -24.6875 C 20.03125 -25.34375 19.070312 -25.671875 17.71875 -25.671875 C 16.820312 -25.671875 15.925781 -25.445312 15.03125 -25 C 14.144531 -24.5625 13.21875 -23.914062 12.25 -23.0625 L 12.25 -3.609375 C 12.25 -2.097656 12.929688 -1.144531 14.296875 -0.75 L 14.8125 -0.578125 L 14.8125 0 Z M 1.15625 0 "/></g></g></g><g fill="#000000" fill-opacity="1"><g transform="translate(417.453261, 670.332886)"><g><path d="M 15.75 -28.8125 C 18.257812 -28.8125 20.40625 -28.296875 22.1875 -27.265625 C 23.96875 -26.242188 25.332031 -24.851562 26.28125 -23.09375 C 27.226562 -21.332031 27.703125 -19.328125 27.703125 -17.078125 C 27.703125 -16.648438 27.679688 -16.210938 27.640625 -15.765625 C 27.609375 -15.328125 27.535156 -14.929688 27.421875 -14.578125 L 10.109375 -14.578125 C 10.148438 -10.398438 10.894531 -7.390625 12.34375 -5.546875 C 13.800781 -3.703125 15.960938 -2.78125 18.828125 -2.78125 C 20.765625 -2.78125 22.332031 -3.085938 23.53125 -3.703125 C 24.726562 -4.328125 25.847656 -5.242188 26.890625 -6.453125 L 27.484375 -5.921875 C 26.273438 -3.796875 24.671875 -2.128906 22.671875 -0.921875 C 20.679688 0.273438 18.296875 0.875 15.515625 0.875 C 12.765625 0.875 10.320312 0.285156 8.1875 -0.890625 C 6.0625 -2.078125 4.394531 -3.773438 3.1875 -5.984375 C 1.988281 -8.191406 1.390625 -10.828125 1.390625 -13.890625 C 1.390625 -17.054688 2.085938 -19.753906 3.484375 -21.984375 C 4.878906 -24.210938 6.671875 -25.90625 8.859375 -27.0625 C 11.046875 -28.226562 13.34375 -28.8125 15.75 -28.8125 Z M 15.5625 -27.65625 C 14.445312 -27.65625 13.488281 -27.316406 12.6875 -26.640625 C 11.894531 -25.960938 11.273438 -24.757812 10.828125 -23.03125 C 10.390625 -21.3125 10.148438 -18.882812 10.109375 -15.75 L 20.046875 -15.75 C 20.429688 -19.96875 20.273438 -23.003906 19.578125 -24.859375 C 18.878906 -26.722656 17.539062 -27.65625 15.5625 -27.65625 Z M 15.5625 -27.65625 "/></g></g></g><g fill="#000000" fill-opacity="1"><g transform="translate(446.908126, 670.332886)"><g/></g></g><g fill="#000000" fill-opacity="1"><g transform="translate(459.573125, 670.332886)"><g><path d="M 1.15625 0 L 1.15625 -0.578125 L 2.328125 -0.984375 C 3.640625 -1.410156 4.296875 -2.515625 4.296875 -4.296875 L 4.296875 -34.046875 C 4.296875 -34.816406 4.207031 -35.429688 4.03125 -35.890625 C 3.863281 -36.359375 3.410156 -36.75 2.671875 -37.0625 L 1.15625 -37.765625 L 1.15625 -38.34375 L 12.375 -38.34375 L 23.125 -10.21875 L 33.234375 -38.34375 L 44.671875 -38.34375 L 44.671875 -37.765625 L 43.75 -37.40625 C 43.007812 -37.132812 42.503906 -36.753906 42.234375 -36.265625 C 41.960938 -35.785156 41.828125 -35.160156 41.828125 -34.390625 L 41.828125 -4.015625 C 41.828125 -3.234375 41.921875 -2.628906 42.109375 -2.203125 C 42.304688 -1.773438 42.773438 -1.410156 43.515625 -1.109375 L 44.671875 -0.578125 L 44.671875 0 L 30.203125 0 L 30.203125 -0.578125 L 31.421875 -1.109375 C 32.160156 -1.410156 32.625 -1.773438 32.8125 -2.203125 C 33.007812 -2.628906 33.109375 -3.234375 33.109375 -4.015625 L 33.109375 -17.078125 L 33.234375 -33.6875 L 21.09375 0 L 18.1875 0 L 5.515625 -33.28125 L 5.6875 -18.828125 L 5.6875 -4.1875 C 5.6875 -3.332031 5.8125 -2.644531 6.0625 -2.125 C 6.320312 -1.601562 6.816406 -1.222656 7.546875 -0.984375 L 8.828125 -0.578125 L 8.828125 0 Z M 1.15625 0 "/></g></g></g><g fill="#000000" fill-opacity="1"><g transform="translate(505.527364, 670.332886)"><g><path d="M 9.640625 0.875 C 7.398438 0.875 5.515625 0.234375 3.984375 -1.046875 C 2.453125 -2.328125 1.6875 -4.164062 1.6875 -6.5625 C 1.6875 -8.382812 2.613281 -10.0625 4.46875 -11.59375 C 6.332031 -13.125 9.257812 -14.273438 13.25 -15.046875 C 13.863281 -15.160156 14.554688 -15.285156 15.328125 -15.421875 C 16.109375 -15.554688 16.925781 -15.703125 17.78125 -15.859375 L 17.78125 -20.453125 C 17.78125 -23.085938 17.457031 -24.9375 16.8125 -26 C 16.175781 -27.0625 15.179688 -27.59375 13.828125 -27.59375 C 12.898438 -27.59375 12.164062 -27.289062 11.625 -26.6875 C 11.082031 -26.09375 10.734375 -25.0625 10.578125 -23.59375 L 10.453125 -22.953125 C 10.378906 -21.285156 9.972656 -20.0625 9.234375 -19.28125 C 8.503906 -18.507812 7.59375 -18.125 6.5 -18.125 C 5.5 -18.125 4.664062 -18.429688 4 -19.046875 C 3.34375 -19.671875 3.015625 -20.503906 3.015625 -21.546875 C 3.015625 -23.140625 3.566406 -24.476562 4.671875 -25.5625 C 5.773438 -26.644531 7.238281 -27.457031 9.0625 -28 C 10.882812 -28.539062 12.859375 -28.8125 14.984375 -28.8125 C 18.429688 -28.8125 21.09375 -27.96875 22.96875 -26.28125 C 24.851562 -24.601562 25.796875 -21.863281 25.796875 -18.0625 L 25.796875 -5.234375 C 25.796875 -3.484375 26.609375 -2.609375 28.234375 -2.609375 L 29.515625 -2.609375 L 30.03125 -2.15625 C 29.300781 -1.21875 28.5 -0.5 27.625 0 C 26.75 0.5 25.519531 0.75 23.9375 0.75 C 22.226562 0.75 20.878906 0.351562 19.890625 -0.4375 C 18.910156 -1.226562 18.265625 -2.285156 17.953125 -3.609375 C 16.785156 -2.367188 15.59375 -1.3125 14.375 -0.4375 C 13.15625 0.4375 11.578125 0.875 9.640625 0.875 Z M 13.1875 -2.671875 C 13.957031 -2.671875 14.679688 -2.851562 15.359375 -3.21875 C 16.035156 -3.59375 16.84375 -4.164062 17.78125 -4.9375 L 17.78125 -14.703125 C 17.394531 -14.617188 17.003906 -14.535156 16.609375 -14.453125 C 16.222656 -14.378906 15.78125 -14.304688 15.28125 -14.234375 C 13.5 -13.765625 12.070312 -12.976562 11 -11.875 C 9.9375 -10.769531 9.40625 -9.289062 9.40625 -7.4375 C 9.40625 -5.84375 9.773438 -4.648438 10.515625 -3.859375 C 11.253906 -3.066406 12.144531 -2.671875 13.1875 -2.671875 Z M 13.1875 -2.671875 "/></g></g></g><g fill="#000000" fill-opacity="1"><g transform="translate(535.621291, 670.332886)"><g><path d="M 8.140625 -31.828125 C 6.816406 -31.828125 5.695312 -32.242188 4.78125 -33.078125 C 3.875 -33.910156 3.421875 -34.96875 3.421875 -36.25 C 3.421875 -37.5625 3.875 -38.625 4.78125 -39.4375 C 5.695312 -40.257812 6.816406 -40.671875 8.140625 -40.671875 C 9.453125 -40.671875 10.550781 -40.257812 11.4375 -39.4375 C 12.332031 -38.625 12.78125 -37.5625 12.78125 -36.25 C 12.78125 -34.96875 12.332031 -33.910156 11.4375 -33.078125 C 10.550781 -32.242188 9.453125 -31.828125 8.140625 -31.828125 Z M 1.28125 0 L 1.28125 -0.578125 L 2.09375 -0.8125 C 2.863281 -1.039062 3.394531 -1.390625 3.6875 -1.859375 C 3.976562 -2.328125 4.125 -2.945312 4.125 -3.71875 L 4.125 -21.90625 C 4.125 -22.71875 3.976562 -23.328125 3.6875 -23.734375 C 3.394531 -24.140625 2.863281 -24.421875 2.09375 -24.578125 L 1.28125 -24.75 L 1.28125 -25.328125 L 11.90625 -28.75 L 12.484375 -28.171875 L 12.3125 -19.921875 L 12.3125 -3.65625 C 12.3125 -2.882812 12.457031 -2.265625 12.75 -1.796875 C 13.039062 -1.335938 13.554688 -0.988281 14.296875 -0.75 L 14.875 -0.578125 L 14.875 0 Z M 1.28125 0 "/></g></g></g><g fill="#000000" fill-opacity="1"><g transform="translate(551.888292, 670.332886)"><g><path d="M 1.15625 0 L 1.15625 -0.578125 L 1.96875 -0.8125 C 3.332031 -1.195312 4.015625 -2.144531 4.015625 -3.65625 L 4.015625 -21.84375 C 4.015625 -22.695312 3.875 -23.328125 3.59375 -23.734375 C 3.320312 -24.140625 2.800781 -24.421875 2.03125 -24.578125 L 1.15625 -24.8125 L 1.15625 -25.390625 L 11.09375 -28.75 L 11.671875 -28.171875 L 12.140625 -24.6875 C 13.492188 -25.882812 15.019531 -26.867188 16.71875 -27.640625 C 18.425781 -28.421875 20.113281 -28.8125 21.78125 -28.8125 C 24.34375 -28.8125 26.3125 -28.113281 27.6875 -26.71875 C 29.0625 -25.320312 29.75 -23.191406 29.75 -20.328125 L 29.75 -3.609375 C 29.75 -2.097656 30.484375 -1.144531 31.953125 -0.75 L 32.46875 -0.578125 L 32.46875 0 L 18.765625 0 L 18.765625 -0.578125 L 19.515625 -0.8125 C 20.867188 -1.238281 21.546875 -2.1875 21.546875 -3.65625 L 21.546875 -22.1875 C 21.546875 -24.664062 20.304688 -25.90625 17.828125 -25.90625 C 16.128906 -25.90625 14.269531 -25.054688 12.25 -23.359375 L 12.25 -3.609375 C 12.25 -2.097656 12.929688 -1.144531 14.296875 -0.75 L 14.8125 -0.578125 L 14.8125 0 Z M 1.15625 0 "/></g></g></g><g fill="#000000" fill-opacity="1"><g transform="translate(585.468006, 670.332886)"><g><path d="M 12.203125 0.875 C 9.722656 0.875 7.796875 0.253906 6.421875 -0.984375 C 5.046875 -2.222656 4.359375 -4.195312 4.359375 -6.90625 L 4.359375 -26.78125 L 0.34375 -26.78125 L 0.34375 -27.359375 L 1.75 -27.59375 C 2.945312 -27.863281 3.976562 -28.25 4.84375 -28.75 C 5.71875 -29.257812 6.582031 -29.941406 7.4375 -30.796875 L 12.203125 -36.078125 L 12.78125 -36.078125 L 12.609375 -27.9375 L 19.109375 -27.9375 L 19.109375 -26.78125 L 12.546875 -26.78125 L 12.546875 -5.875 C 12.546875 -4.507812 12.84375 -3.476562 13.4375 -2.78125 C 14.039062 -2.09375 14.8125 -1.75 15.75 -1.75 C 16.5625 -1.75 17.273438 -1.953125 17.890625 -2.359375 C 18.515625 -2.765625 19.132812 -3.316406 19.75 -4.015625 L 20.328125 -3.421875 C 19.554688 -2.109375 18.492188 -1.0625 17.140625 -0.28125 C 15.785156 0.488281 14.140625 0.875 12.203125 0.875 Z M 12.203125 0.875 "/></g></g></g><g fill="#000000" fill-opacity="1"><g transform="translate(606.440804, 670.332886)"><g><path d="M 15.75 -28.8125 C 18.257812 -28.8125 20.40625 -28.296875 22.1875 -27.265625 C 23.96875 -26.242188 25.332031 -24.851562 26.28125 -23.09375 C 27.226562 -21.332031 27.703125 -19.328125 27.703125 -17.078125 C 27.703125 -16.648438 27.679688 -16.210938 27.640625 -15.765625 C 27.609375 -15.328125 27.535156 -14.929688 27.421875 -14.578125 L 10.109375 -14.578125 C 10.148438 -10.398438 10.894531 -7.390625 12.34375 -5.546875 C 13.800781 -3.703125 15.960938 -2.78125 18.828125 -2.78125 C 20.765625 -2.78125 22.332031 -3.085938 23.53125 -3.703125 C 24.726562 -4.328125 25.847656 -5.242188 26.890625 -6.453125 L 27.484375 -5.921875 C 26.273438 -3.796875 24.671875 -2.128906 22.671875 -0.921875 C 20.679688 0.273438 18.296875 0.875 15.515625 0.875 C 12.765625 0.875 10.320312 0.285156 8.1875 -0.890625 C 6.0625 -2.078125 4.394531 -3.773438 3.1875 -5.984375 C 1.988281 -8.191406 1.390625 -10.828125 1.390625 -13.890625 C 1.390625 -17.054688 2.085938 -19.753906 3.484375 -21.984375 C 4.878906 -24.210938 6.671875 -25.90625 8.859375 -27.0625 C 11.046875 -28.226562 13.34375 -28.8125 15.75 -28.8125 Z M 15.5625 -27.65625 C 14.445312 -27.65625 13.488281 -27.316406 12.6875 -26.640625 C 11.894531 -25.960938 11.273438 -24.757812 10.828125 -23.03125 C 10.390625 -21.3125 10.148438 -18.882812 10.109375 -15.75 L 20.046875 -15.75 C 20.429688 -19.96875 20.273438 -23.003906 19.578125 -24.859375 C 18.878906 -26.722656 17.539062 -27.65625 15.5625 -27.65625 Z M 15.5625 -27.65625 "/></g></g></g><g fill="#000000" fill-opacity="1"><g transform="translate(635.895669, 670.332886)"><g><path d="M 1.15625 0 L 1.15625 -0.578125 L 1.96875 -0.8125 C 3.332031 -1.195312 4.015625 -2.144531 4.015625 -3.65625 L 4.015625 -21.84375 C 4.015625 -22.695312 3.875 -23.328125 3.59375 -23.734375 C 3.320312 -24.140625 2.800781 -24.421875 2.03125 -24.578125 L 1.15625 -24.8125 L 1.15625 -25.390625 L 11.09375 -28.75 L 11.671875 -28.171875 L 12.140625 -24.6875 C 13.492188 -25.882812 15.019531 -26.867188 16.71875 -27.640625 C 18.425781 -28.421875 20.113281 -28.8125 21.78125 -28.8125 C 24.34375 -28.8125 26.3125 -28.113281 27.6875 -26.71875 C 29.0625 -25.320312 29.75 -23.191406 29.75 -20.328125 L 29.75 -3.609375 C 29.75 -2.097656 30.484375 -1.144531 31.953125 -0.75 L 32.46875 -0.578125 L 32.46875 0 L 18.765625 0 L 18.765625 -0.578125 L 19.515625 -0.8125 C 20.867188 -1.238281 21.546875 -2.1875 21.546875 -3.65625 L 21.546875 -22.1875 C 21.546875 -24.664062 20.304688 -25.90625 17.828125 -25.90625 C 16.128906 -25.90625 14.269531 -25.054688 12.25 -23.359375 L 12.25 -3.609375 C 12.25 -2.097656 12.929688 -1.144531 14.296875 -0.75 L 14.8125 -0.578125 L 14.8125 0 Z M 1.15625 0 "/></g></g></g><g fill="#000000" fill-opacity="1"><g transform="translate(669.475383, 670.332886)"><g><path d="M 9.640625 0.875 C 7.398438 0.875 5.515625 0.234375 3.984375 -1.046875 C 2.453125 -2.328125 1.6875 -4.164062 1.6875 -6.5625 C 1.6875 -8.382812 2.613281 -10.0625 4.46875 -11.59375 C 6.332031 -13.125 9.257812 -14.273438 13.25 -15.046875 C 13.863281 -15.160156 14.554688 -15.285156 15.328125 -15.421875 C 16.109375 -15.554688 16.925781 -15.703125 17.78125 -15.859375 L 17.78125 -20.453125 C 17.78125 -23.085938 17.457031 -24.9375 16.8125 -26 C 16.175781 -27.0625 15.179688 -27.59375 13.828125 -27.59375 C 12.898438 -27.59375 12.164062 -27.289062 11.625 -26.6875 C 11.082031 -26.09375 10.734375 -25.0625 10.578125 -23.59375 L 10.453125 -22.953125 C 10.378906 -21.285156 9.972656 -20.0625 9.234375 -19.28125 C 8.503906 -18.507812 7.59375 -18.125 6.5 -18.125 C 5.5 -18.125 4.664062 -18.429688 4 -19.046875 C 3.34375 -19.671875 3.015625 -20.503906 3.015625 -21.546875 C 3.015625 -23.140625 3.566406 -24.476562 4.671875 -25.5625 C 5.773438 -26.644531 7.238281 -27.457031 9.0625 -28 C 10.882812 -28.539062 12.859375 -28.8125 14.984375 -28.8125 C 18.429688 -28.8125 21.09375 -27.96875 22.96875 -26.28125 C 24.851562 -24.601562 25.796875 -21.863281 25.796875 -18.0625 L 25.796875 -5.234375 C 25.796875 -3.484375 26.609375 -2.609375 28.234375 -2.609375 L 29.515625 -2.609375 L 30.03125 -2.15625 C 29.300781 -1.21875 28.5 -0.5 27.625 0 C 26.75 0.5 25.519531 0.75 23.9375 0.75 C 22.226562 0.75 20.878906 0.351562 19.890625 -0.4375 C 18.910156 -1.226562 18.265625 -2.285156 17.953125 -3.609375 C 16.785156 -2.367188 15.59375 -1.3125 14.375 -0.4375 C 13.15625 0.4375 11.578125 0.875 9.640625 0.875 Z M 13.1875 -2.671875 C 13.957031 -2.671875 14.679688 -2.851562 15.359375 -3.21875 C 16.035156 -3.59375 16.84375 -4.164062 17.78125 -4.9375 L 17.78125 -14.703125 C 17.394531 -14.617188 17.003906 -14.535156 16.609375 -14.453125 C 16.222656 -14.378906 15.78125 -14.304688 15.28125 -14.234375 C 13.5 -13.765625 12.070312 -12.976562 11 -11.875 C 9.9375 -10.769531 9.40625 -9.289062 9.40625 -7.4375 C 9.40625 -5.84375 9.773438 -4.648438 10.515625 -3.859375 C 11.253906 -3.066406 12.144531 -2.671875 13.1875 -2.671875 Z M 13.1875 -2.671875 "/></g></g></g><g fill="#000000" fill-opacity="1"><g transform="translate(699.569291, 670.332886)"><g><path d="M 1.15625 0 L 1.15625 -0.578125 L 1.96875 -0.8125 C 3.332031 -1.195312 4.015625 -2.144531 4.015625 -3.65625 L 4.015625 -21.84375 C 4.015625 -22.695312 3.875 -23.328125 3.59375 -23.734375 C 3.320312 -24.140625 2.800781 -24.421875 2.03125 -24.578125 L 1.15625 -24.8125 L 1.15625 -25.390625 L 11.09375 -28.75 L 11.671875 -28.171875 L 12.140625 -24.6875 C 13.492188 -25.882812 15.019531 -26.867188 16.71875 -27.640625 C 18.425781 -28.421875 20.113281 -28.8125 21.78125 -28.8125 C 24.34375 -28.8125 26.3125 -28.113281 27.6875 -26.71875 C 29.0625 -25.320312 29.75 -23.191406 29.75 -20.328125 L 29.75 -3.609375 C 29.75 -2.097656 30.484375 -1.144531 31.953125 -0.75 L 32.46875 -0.578125 L 32.46875 0 L 18.765625 0 L 18.765625 -0.578125 L 19.515625 -0.8125 C 20.867188 -1.238281 21.546875 -2.1875 21.546875 -3.65625 L 21.546875 -22.1875 C 21.546875 -24.664062 20.304688 -25.90625 17.828125 -25.90625 C 16.128906 -25.90625 14.269531 -25.054688 12.25 -23.359375 L 12.25 -3.609375 C 12.25 -2.097656 12.929688 -1.144531 14.296875 -0.75 L 14.8125 -0.578125 L 14.8125 0 Z M 1.15625 0 "/></g></g></g><g fill="#000000" fill-opacity="1"><g transform="translate(733.149005, 670.332886)"><g><path d="M 15.5625 0.875 C 12.9375 0.875 10.546875 0.300781 8.390625 -0.84375 C 6.242188 -1.988281 4.539062 -3.65625 3.28125 -5.84375 C 2.019531 -8.03125 1.390625 -10.710938 1.390625 -13.890625 C 1.390625 -17.023438 2.078125 -19.703125 3.453125 -21.921875 C 4.828125 -24.148438 6.664062 -25.851562 8.96875 -27.03125 C 11.28125 -28.21875 13.8125 -28.8125 16.5625 -28.8125 C 18.800781 -28.8125 20.695312 -28.441406 22.25 -27.703125 C 23.800781 -26.972656 24.984375 -26.015625 25.796875 -24.828125 C 26.609375 -23.648438 27.015625 -22.421875 27.015625 -21.140625 C 27.015625 -20.054688 26.679688 -19.210938 26.015625 -18.609375 C 25.359375 -18.015625 24.507812 -17.71875 23.46875 -17.71875 C 22.34375 -17.71875 21.429688 -18.125 20.734375 -18.9375 C 20.035156 -19.75 19.628906 -20.816406 19.515625 -22.140625 C 19.484375 -22.984375 19.503906 -23.707031 19.578125 -24.3125 C 19.648438 -24.914062 19.648438 -25.523438 19.578125 -26.140625 C 19.421875 -26.796875 19.175781 -27.226562 18.84375 -27.4375 C 18.519531 -27.65625 18.066406 -27.765625 17.484375 -27.765625 C 15.117188 -27.765625 13.285156 -26.738281 11.984375 -24.6875 C 10.691406 -22.632812 10.046875 -19.363281 10.046875 -14.875 C 10.046875 -10.957031 10.769531 -7.960938 12.21875 -5.890625 C 13.675781 -3.816406 15.914062 -2.78125 18.9375 -2.78125 C 20.757812 -2.78125 22.226562 -3.109375 23.34375 -3.765625 C 24.46875 -4.429688 25.554688 -5.421875 26.609375 -6.734375 L 27.1875 -6.28125 C 26.21875 -3.988281 24.722656 -2.222656 22.703125 -0.984375 C 20.691406 0.253906 18.3125 0.875 15.5625 0.875 Z M 15.5625 0.875 "/></g></g></g><g fill="#000000" fill-opacity="1"><g transform="translate(761.848605, 670.332886)"><g><path d="M 15.75 -28.8125 C 18.257812 -28.8125 20.40625 -28.296875 22.1875 -27.265625 C 23.96875 -26.242188 25.332031 -24.851562 26.28125 -23.09375 C 27.226562 -21.332031 27.703125 -19.328125 27.703125 -17.078125 C 27.703125 -16.648438 27.679688 -16.210938 27.640625 -15.765625 C 27.609375 -15.328125 27.535156 -14.929688 27.421875 -14.578125 L 10.109375 -14.578125 C 10.148438 -10.398438 10.894531 -7.390625 12.34375 -5.546875 C 13.800781 -3.703125 15.960938 -2.78125 18.828125 -2.78125 C 20.765625 -2.78125 22.332031 -3.085938 23.53125 -3.703125 C 24.726562 -4.328125 25.847656 -5.242188 26.890625 -6.453125 L 27.484375 -5.921875 C 26.273438 -3.796875 24.671875 -2.128906 22.671875 -0.921875 C 20.679688 0.273438 18.296875 0.875 15.515625 0.875 C 12.765625 0.875 10.320312 0.285156 8.1875 -0.890625 C 6.0625 -2.078125 4.394531 -3.773438 3.1875 -5.984375 C 1.988281 -8.191406 1.390625 -10.828125 1.390625 -13.890625 C 1.390625 -17.054688 2.085938 -19.753906 3.484375 -21.984375 C 4.878906 -24.210938 6.671875 -25.90625 8.859375 -27.0625 C 11.046875 -28.226562 13.34375 -28.8125 15.75 -28.8125 Z M 15.5625 -27.65625 C 14.445312 -27.65625 13.488281 -27.316406 12.6875 -26.640625 C 11.894531 -25.960938 11.273438 -24.757812 10.828125 -23.03125 C 10.390625 -21.3125 10.148438 -18.882812 10.109375 -15.75 L 20.046875 -15.75 C 20.429688 -19.96875 20.273438 -23.003906 19.578125 -24.859375 C 18.878906 -26.722656 17.539062 -27.65625 15.5625 -27.65625 Z M 15.5625 -27.65625 "/></g></g></g><g fill="#000000" fill-opacity="1"><g transform="translate(791.303452, 670.332886)"><g/></g></g><g fill="#000000" fill-opacity="1"><g transform="translate(803.968479, 670.332886)"><g><path d="M 1.15625 0 L 1.15625 -0.578125 L 2.328125 -0.984375 C 3.640625 -1.410156 4.296875 -2.515625 4.296875 -4.296875 L 4.296875 -34.046875 C 4.296875 -34.816406 4.207031 -35.429688 4.03125 -35.890625 C 3.863281 -36.359375 3.410156 -36.75 2.671875 -37.0625 L 1.15625 -37.765625 L 1.15625 -38.34375 L 12.375 -38.34375 L 23.125 -10.21875 L 33.234375 -38.34375 L 44.671875 -38.34375 L 44.671875 -37.765625 L 43.75 -37.40625 C 43.007812 -37.132812 42.503906 -36.753906 42.234375 -36.265625 C 41.960938 -35.785156 41.828125 -35.160156 41.828125 -34.390625 L 41.828125 -4.015625 C 41.828125 -3.234375 41.921875 -2.628906 42.109375 -2.203125 C 42.304688 -1.773438 42.773438 -1.410156 43.515625 -1.109375 L 44.671875 -0.578125 L 44.671875 0 L 30.203125 0 L 30.203125 -0.578125 L 31.421875 -1.109375 C 32.160156 -1.410156 32.625 -1.773438 32.8125 -2.203125 C 33.007812 -2.628906 33.109375 -3.234375 33.109375 -4.015625 L 33.109375 -17.078125 L 33.234375 -33.6875 L 21.09375 0 L 18.1875 0 L 5.515625 -33.28125 L 5.6875 -18.828125 L 5.6875 -4.1875 C 5.6875 -3.332031 5.8125 -2.644531 6.0625 -2.125 C 6.320312 -1.601562 6.816406 -1.222656 7.546875 -0.984375 L 8.828125 -0.578125 L 8.828125 0 Z M 1.15625 0 "/></g></g></g><g fill="#000000" fill-opacity="1"><g transform="translate(849.922718, 670.332886)"><g><path d="M 9.640625 0.875 C 7.398438 0.875 5.515625 0.234375 3.984375 -1.046875 C 2.453125 -2.328125 1.6875 -4.164062 1.6875 -6.5625 C 1.6875 -8.382812 2.613281 -10.0625 4.46875 -11.59375 C 6.332031 -13.125 9.257812 -14.273438 13.25 -15.046875 C 13.863281 -15.160156 14.554688 -15.285156 15.328125 -15.421875 C 16.109375 -15.554688 16.925781 -15.703125 17.78125 -15.859375 L 17.78125 -20.453125 C 17.78125 -23.085938 17.457031 -24.9375 16.8125 -26 C 16.175781 -27.0625 15.179688 -27.59375 13.828125 -27.59375 C 12.898438 -27.59375 12.164062 -27.289062 11.625 -26.6875 C 11.082031 -26.09375 10.734375 -25.0625 10.578125 -23.59375 L 10.453125 -22.953125 C 10.378906 -21.285156 9.972656 -20.0625 9.234375 -19.28125 C 8.503906 -18.507812 7.59375 -18.125 6.5 -18.125 C 5.5 -18.125 4.664062 -18.429688 4 -19.046875 C 3.34375 -19.671875 3.015625 -20.503906 3.015625 -21.546875 C 3.015625 -23.140625 3.566406 -24.476562 4.671875 -25.5625 C 5.773438 -26.644531 7.238281 -27.457031 9.0625 -28 C 10.882812 -28.539062 12.859375 -28.8125 14.984375 -28.8125 C 18.429688 -28.8125 21.09375 -27.96875 22.96875 -26.28125 C 24.851562 -24.601562 25.796875 -21.863281 25.796875 -18.0625 L 25.796875 -5.234375 C 25.796875 -3.484375 26.609375 -2.609375 28.234375 -2.609375 L 29.515625 -2.609375 L 30.03125 -2.15625 C 29.300781 -1.21875 28.5 -0.5 27.625 0 C 26.75 0.5 25.519531 0.75 23.9375 0.75 C 22.226562 0.75 20.878906 0.351562 19.890625 -0.4375 C 18.910156 -1.226562 18.265625 -2.285156 17.953125 -3.609375 C 16.785156 -2.367188 15.59375 -1.3125 14.375 -0.4375 C 13.15625 0.4375 11.578125 0.875 9.640625 0.875 Z M 13.1875 -2.671875 C 13.957031 -2.671875 14.679688 -2.851562 15.359375 -3.21875 C 16.035156 -3.59375 16.84375 -4.164062 17.78125 -4.9375 L 17.78125 -14.703125 C 17.394531 -14.617188 17.003906 -14.535156 16.609375 -14.453125 C 16.222656 -14.378906 15.78125 -14.304688 15.28125 -14.234375 C 13.5 -13.765625 12.070312 -12.976562 11 -11.875 C 9.9375 -10.769531 9.40625 -9.289062 9.40625 -7.4375 C 9.40625 -5.84375 9.773438 -4.648438 10.515625 -3.859375 C 11.253906 -3.066406 12.144531 -2.671875 13.1875 -2.671875 Z M 13.1875 -2.671875 "/></g></g></g><g fill="#000000" fill-opacity="1"><g transform="translate(880.016626, 670.332886)"><g><path d="M 13.484375 0.875 C 11.191406 0.875 9.132812 0.363281 7.3125 -0.65625 C 5.5 -1.6875 4.054688 -3.273438 2.984375 -5.421875 C 1.921875 -7.578125 1.390625 -10.335938 1.390625 -13.703125 C 1.390625 -17.117188 1.988281 -19.9375 3.1875 -22.15625 C 4.394531 -24.382812 5.984375 -26.050781 7.953125 -27.15625 C 9.929688 -28.257812 12.082031 -28.8125 14.40625 -28.8125 C 15.757812 -28.8125 17.054688 -28.675781 18.296875 -28.40625 C 19.535156 -28.132812 20.640625 -27.726562 21.609375 -27.1875 L 21.609375 -34.734375 C 21.609375 -35.546875 21.484375 -36.144531 21.234375 -36.53125 C 20.984375 -36.925781 20.453125 -37.203125 19.640625 -37.359375 L 18.53125 -37.59375 L 18.53125 -38.171875 L 29.109375 -40.71875 L 29.75 -40.203125 L 29.515625 -32.0625 L 29.515625 -3.65625 C 29.515625 -2.882812 29.648438 -2.253906 29.921875 -1.765625 C 30.191406 -1.285156 30.691406 -0.945312 31.421875 -0.75 L 31.953125 -0.578125 L 31.953125 0 L 22.015625 0.640625 L 21.5 -1.453125 C 20.445312 -0.753906 19.253906 -0.191406 17.921875 0.234375 C 16.585938 0.660156 15.109375 0.875 13.484375 0.875 Z M 16.84375 -1.28125 C 18.46875 -1.28125 19.960938 -1.765625 21.328125 -2.734375 L 21.328125 -25.796875 C 19.890625 -26.722656 18.414062 -27.1875 16.90625 -27.1875 C 15.039062 -27.1875 13.453125 -26.109375 12.140625 -23.953125 C 10.828125 -21.804688 10.171875 -18.429688 10.171875 -13.828125 C 10.171875 -9.210938 10.789062 -5.96875 12.03125 -4.09375 C 13.269531 -2.21875 14.875 -1.28125 16.84375 -1.28125 Z M 16.84375 -1.28125 "/></g></g></g><g fill="#000000" fill-opacity="1"><g transform="translate(913.363968, 670.332886)"><g><path d="M 15.75 -28.8125 C 18.257812 -28.8125 20.40625 -28.296875 22.1875 -27.265625 C 23.96875 -26.242188 25.332031 -24.851562 26.28125 -23.09375 C 27.226562 -21.332031 27.703125 -19.328125 27.703125 -17.078125 C 27.703125 -16.648438 27.679688 -16.210938 27.640625 -15.765625 C 27.609375 -15.328125 27.535156 -14.929688 27.421875 -14.578125 L 10.109375 -14.578125 C 10.148438 -10.398438 10.894531 -7.390625 12.34375 -5.546875 C 13.800781 -3.703125 15.960938 -2.78125 18.828125 -2.78125 C 20.765625 -2.78125 22.332031 -3.085938 23.53125 -3.703125 C 24.726562 -4.328125 25.847656 -5.242188 26.890625 -6.453125 L 27.484375 -5.921875 C 26.273438 -3.796875 24.671875 -2.128906 22.671875 -0.921875 C 20.679688 0.273438 18.296875 0.875 15.515625 0.875 C 12.765625 0.875 10.320312 0.285156 8.1875 -0.890625 C 6.0625 -2.078125 4.394531 -3.773438 3.1875 -5.984375 C 1.988281 -8.191406 1.390625 -10.828125 1.390625 -13.890625 C 1.390625 -17.054688 2.085938 -19.753906 3.484375 -21.984375 C 4.878906 -24.210938 6.671875 -25.90625 8.859375 -27.0625 C 11.046875 -28.226562 13.34375 -28.8125 15.75 -28.8125 Z M 15.5625 -27.65625 C 14.445312 -27.65625 13.488281 -27.316406 12.6875 -26.640625 C 11.894531 -25.960938 11.273438 -24.757812 10.828125 -23.03125 C 10.390625 -21.3125 10.148438 -18.882812 10.109375 -15.75 L 20.046875 -15.75 C 20.429688 -19.96875 20.273438 -23.003906 19.578125 -24.859375 C 18.878906 -26.722656 17.539062 -27.65625 15.5625 -27.65625 Z M 15.5625 -27.65625 "/></g></g></g><g fill="#000000" fill-opacity="1"><g transform="translate(942.818814, 670.332886)"><g/></g></g><g fill="#000000" fill-opacity="1"><g transform="translate(955.483842, 670.332886)"><g><path d="M 13.765625 1.046875 C 11.640625 1.046875 9.472656 0.785156 7.265625 0.265625 C 5.054688 -0.253906 3.21875 -0.941406 1.75 -1.796875 L 2.03125 -9.703125 L 2.609375 -9.703125 L 4.421875 -5.921875 C 4.960938 -4.835938 5.539062 -3.878906 6.15625 -3.046875 C 6.78125 -2.210938 7.632812 -1.566406 8.71875 -1.109375 C 9.488281 -0.710938 10.234375 -0.445312 10.953125 -0.3125 C 11.671875 -0.175781 12.472656 -0.109375 13.359375 -0.109375 C 15.722656 -0.109375 17.59375 -0.75 18.96875 -2.03125 C 20.34375 -3.3125 21.03125 -4.957031 21.03125 -6.96875 C 21.03125 -8.863281 20.5625 -10.34375 19.625 -11.40625 C 18.695312 -12.476562 17.207031 -13.519531 15.15625 -14.53125 L 12.78125 -15.5625 C 9.445312 -17.039062 6.84375 -18.738281 4.96875 -20.65625 C 3.09375 -22.570312 2.15625 -25.117188 2.15625 -28.296875 C 2.15625 -30.578125 2.742188 -32.550781 3.921875 -34.21875 C 5.097656 -35.882812 6.742188 -37.160156 8.859375 -38.046875 C 10.972656 -38.941406 13.441406 -39.390625 16.265625 -39.390625 C 18.316406 -39.390625 20.257812 -39.117188 22.09375 -38.578125 C 23.9375 -38.035156 25.535156 -37.296875 26.890625 -36.359375 L 26.546875 -29.390625 L 25.96875 -29.390625 L 23.59375 -33.75 C 22.925781 -35.101562 22.265625 -36.0625 21.609375 -36.625 C 20.953125 -37.1875 20.195312 -37.582031 19.34375 -37.8125 C 18.84375 -37.96875 18.378906 -38.070312 17.953125 -38.125 C 17.523438 -38.1875 16.984375 -38.21875 16.328125 -38.21875 C 14.347656 -38.21875 12.679688 -37.644531 11.328125 -36.5 C 9.972656 -35.363281 9.296875 -33.828125 9.296875 -31.890625 C 9.296875 -29.921875 9.816406 -28.34375 10.859375 -27.15625 C 11.910156 -25.976562 13.441406 -24.925781 15.453125 -24 L 18.125 -22.828125 C 21.84375 -21.203125 24.515625 -19.46875 26.140625 -17.625 C 27.765625 -15.789062 28.578125 -13.421875 28.578125 -10.515625 C 28.578125 -7.109375 27.289062 -4.328125 24.71875 -2.171875 C 22.144531 -0.0234375 18.492188 1.046875 13.765625 1.046875 Z M 13.765625 1.046875 "/></g></g></g><g fill="#000000" fill-opacity="1"><g transform="translate(985.752066, 670.332886)"><g><path d="M 8.140625 -31.828125 C 6.816406 -31.828125 5.695312 -32.242188 4.78125 -33.078125 C 3.875 -33.910156 3.421875 -34.96875 3.421875 -36.25 C 3.421875 -37.5625 3.875 -38.625 4.78125 -39.4375 C 5.695312 -40.257812 6.816406 -40.671875 8.140625 -40.671875 C 9.453125 -40.671875 10.550781 -40.257812 11.4375 -39.4375 C 12.332031 -38.625 12.78125 -37.5625 12.78125 -36.25 C 12.78125 -34.96875 12.332031 -33.910156 11.4375 -33.078125 C 10.550781 -32.242188 9.453125 -31.828125 8.140625 -31.828125 Z M 1.28125 0 L 1.28125 -0.578125 L 2.09375 -0.8125 C 2.863281 -1.039062 3.394531 -1.390625 3.6875 -1.859375 C 3.976562 -2.328125 4.125 -2.945312 4.125 -3.71875 L 4.125 -21.90625 C 4.125 -22.71875 3.976562 -23.328125 3.6875 -23.734375 C 3.394531 -24.140625 2.863281 -24.421875 2.09375 -24.578125 L 1.28125 -24.75 L 1.28125 -25.328125 L 11.90625 -28.75 L 12.484375 -28.171875 L 12.3125 -19.921875 L 12.3125 -3.65625 C 12.3125 -2.882812 12.457031 -2.265625 12.75 -1.796875 C 13.039062 -1.335938 13.554688 -0.988281 14.296875 -0.75 L 14.875 -0.578125 L 14.875 0 Z M 1.28125 0 "/></g></g></g><g fill="#000000" fill-opacity="1"><g transform="translate(1002.019086, 670.332886)"><g><path d="M 1.15625 0 L 1.15625 -0.578125 L 1.96875 -0.8125 C 2.707031 -1.007812 3.222656 -1.335938 3.515625 -1.796875 C 3.804688 -2.265625 3.972656 -2.882812 4.015625 -3.65625 L 4.015625 -21.84375 C 4.015625 -22.695312 3.875 -23.328125 3.59375 -23.734375 C 3.320312 -24.140625 2.800781 -24.421875 2.03125 -24.578125 L 1.15625 -24.8125 L 1.15625 -25.390625 L 11.09375 -28.75 L 11.671875 -28.171875 L 12.140625 -24.21875 C 13.421875 -25.5 14.882812 -26.582031 16.53125 -27.46875 C 18.175781 -28.363281 19.890625 -28.8125 21.671875 -28.8125 C 23.523438 -28.8125 25.015625 -28.429688 26.140625 -27.671875 C 27.265625 -26.921875 28.117188 -25.753906 28.703125 -24.171875 C 30.210938 -25.597656 31.847656 -26.726562 33.609375 -27.5625 C 35.367188 -28.394531 37.082031 -28.8125 38.75 -28.8125 C 41.5 -28.8125 43.519531 -28.148438 44.8125 -26.828125 C 46.113281 -25.515625 46.765625 -23.445312 46.765625 -20.625 L 46.765625 -3.609375 C 46.765625 -2.097656 47.460938 -1.144531 48.859375 -0.75 L 49.5 -0.578125 L 49.5 0 L 36.078125 0 L 36.078125 -0.578125 L 36.65625 -0.75 C 37.394531 -0.988281 37.90625 -1.335938 38.1875 -1.796875 C 38.476562 -2.265625 38.625 -2.882812 38.625 -3.65625 L 38.625 -21.4375 C 38.625 -23.0625 38.332031 -24.171875 37.75 -24.765625 C 37.175781 -25.367188 36.25 -25.671875 34.96875 -25.671875 C 33.96875 -25.671875 32.988281 -25.445312 32.03125 -25 C 31.082031 -24.5625 30.085938 -23.894531 29.046875 -23 C 29.242188 -22.382812 29.367188 -21.707031 29.421875 -20.96875 C 29.484375 -20.238281 29.515625 -19.460938 29.515625 -18.640625 L 29.515625 -3.609375 C 29.546875 -2.097656 30.242188 -1.144531 31.609375 -0.75 L 32.125 -0.578125 L 32.125 0 L 18.640625 0 L 18.640625 -0.578125 L 19.46875 -0.8125 C 20.195312 -1.039062 20.707031 -1.378906 21 -1.828125 C 21.289062 -2.273438 21.4375 -2.882812 21.4375 -3.65625 L 21.4375 -21.375 C 21.4375 -22.925781 21.15625 -24.03125 20.59375 -24.6875 C 20.03125 -25.34375 19.070312 -25.671875 17.71875 -25.671875 C 16.820312 -25.671875 15.925781 -25.445312 15.03125 -25 C 14.144531 -24.5625 13.21875 -23.914062 12.25 -23.0625 L 12.25 -3.609375 C 12.25 -2.097656 12.929688 -1.144531 14.296875 -0.75 L 14.8125 -0.578125 L 14.8125 0 Z M 1.15625 0 "/></g></g></g><g fill="#000000" fill-opacity="1"><g transform="translate(1052.621067, 670.332886)"><g><path d="M 1.15625 13.359375 L 1.15625 12.78125 L 1.859375 12.546875 C 3.296875 12.160156 4.015625 11.234375 4.015625 9.765625 L 4.015625 -21.84375 C 4.015625 -22.695312 3.867188 -23.335938 3.578125 -23.765625 C 3.285156 -24.191406 2.75 -24.476562 1.96875 -24.625 L 1.15625 -24.8125 L 1.15625 -25.390625 L 11.03125 -28.75 L 11.625 -28.171875 L 12.140625 -26.375 C 13.421875 -27.144531 14.84375 -27.742188 16.40625 -28.171875 C 17.976562 -28.597656 19.597656 -28.8125 21.265625 -28.8125 C 24.597656 -28.8125 27.238281 -27.539062 29.1875 -25 C 31.144531 -22.46875 32.125 -18.835938 32.125 -14.109375 C 32.125 -9.460938 31.046875 -5.800781 28.890625 -3.125 C 26.742188 -0.457031 23.71875 0.875 19.8125 0.875 C 16.75 0.875 14.171875 0.425781 12.078125 -0.46875 L 12.078125 9.578125 C 12.078125 11.128906 12.773438 12.097656 14.171875 12.484375 L 15.28125 12.78125 L 15.28125 13.359375 Z M 17.015625 -0.8125 C 18.953125 -0.8125 20.492188 -1.816406 21.640625 -3.828125 C 22.785156 -5.847656 23.359375 -9.203125 23.359375 -13.890625 C 23.359375 -18.566406 22.8125 -21.84375 21.71875 -23.71875 C 20.632812 -25.601562 19.066406 -26.546875 17.015625 -26.546875 C 15.585938 -26.546875 14 -26.082031 12.25 -25.15625 L 12.25 -1.75 C 13.726562 -1.125 15.316406 -0.8125 17.015625 -0.8125 Z M 17.015625 -0.8125 "/></g></g></g><g fill="#000000" fill-opacity="1"><g transform="translate(1086.200781, 670.332886)"><g><path d="M 1.34375 0 L 1.34375 -0.578125 L 2.03125 -0.8125 C 3.425781 -1.28125 4.125 -2.25 4.125 -3.71875 L 4.125 -34.796875 C 4.125 -35.566406 3.96875 -36.15625 3.65625 -36.5625 C 3.34375 -36.976562 2.800781 -37.28125 2.03125 -37.46875 L 1.28125 -37.640625 L 1.28125 -38.21875 L 11.90625 -40.71875 L 12.609375 -40.203125 L 12.375 -32.0625 L 12.375 -12.203125 C 12.375 -10.765625 12.382812 -9.335938 12.40625 -7.921875 C 12.425781 -6.515625 12.4375 -5.113281 12.4375 -3.71875 C 12.4375 -2.945312 12.585938 -2.316406 12.890625 -1.828125 C 13.203125 -1.347656 13.726562 -0.988281 14.46875 -0.75 L 15.21875 -0.578125 L 15.21875 0 Z M 1.34375 0 "/></g></g></g><g fill="#000000" fill-opacity="1"><g transform="translate(1102.816359, 670.332886)"><g><path d="M 15.75 -28.8125 C 18.257812 -28.8125 20.40625 -28.296875 22.1875 -27.265625 C 23.96875 -26.242188 25.332031 -24.851562 26.28125 -23.09375 C 27.226562 -21.332031 27.703125 -19.328125 27.703125 -17.078125 C 27.703125 -16.648438 27.679688 -16.210938 27.640625 -15.765625 C 27.609375 -15.328125 27.535156 -14.929688 27.421875 -14.578125 L 10.109375 -14.578125 C 10.148438 -10.398438 10.894531 -7.390625 12.34375 -5.546875 C 13.800781 -3.703125 15.960938 -2.78125 18.828125 -2.78125 C 20.765625 -2.78125 22.332031 -3.085938 23.53125 -3.703125 C 24.726562 -4.328125 25.847656 -5.242188 26.890625 -6.453125 L 27.484375 -5.921875 C 26.273438 -3.796875 24.671875 -2.128906 22.671875 -0.921875 C 20.679688 0.273438 18.296875 0.875 15.515625 0.875 C 12.765625 0.875 10.320312 0.285156 8.1875 -0.890625 C 6.0625 -2.078125 4.394531 -3.773438 3.1875 -5.984375 C 1.988281 -8.191406 1.390625 -10.828125 1.390625 -13.890625 C 1.390625 -17.054688 2.085938 -19.753906 3.484375 -21.984375 C 4.878906 -24.210938 6.671875 -25.90625 8.859375 -27.0625 C 11.046875 -28.226562 13.34375 -28.8125 15.75 -28.8125 Z M 15.5625 -27.65625 C 14.445312 -27.65625 13.488281 -27.316406 12.6875 -26.640625 C 11.894531 -25.960938 11.273438 -24.757812 10.828125 -23.03125 C 10.390625 -21.3125 10.148438 -18.882812 10.109375 -15.75 L 20.046875 -15.75 C 20.429688 -19.96875 20.273438 -23.003906 19.578125 -24.859375 C 18.878906 -26.722656 17.539062 -27.65625 15.5625 -27.65625 Z M 15.5625 -27.65625 "/></g></g></g><g fill="#000000" fill-opacity="0.4"><g transform="translate(1134.848524, 672.900526)"><g/></g></g><g fill="#000000" fill-opacity="1"><g transform="translate(1132.280858, 670.332886)"><g/></g></g></svg>